<svg id="Layer_1" data-name="Layer 1" xmlns="http://www.w3.org/2000/svg" viewBox="0 0 615.33 401.4"><defs><style>.cls-1{fill:#9b3082;}.cls-2,.cls-4,.cls-7{fill:none;stroke-miterlimit:10;stroke-width:4px;}.cls-2{stroke:#fff;}.cls-3{fill:#fff;}.cls-4{stroke:#aad1d0;}.cls-4,.cls-7{stroke-linecap:round;}.cls-5{fill:#4a4a4a;}.cls-6{fill:#d38247;}.cls-7{stroke:#d7d7d7;}.cls-8{fill:#8f8f8f;}</style></defs><title>donts</title><rect class="cls-1" width="299.52" height="131.34"/><rect class="cls-1" y="150.64" width="299.52" height="131.34"/><path class="cls-2" d="M168.94,294s23.47,15.63,24.8,46.66a3.9,3.9,0,0,1-4,4H165a2.76,2.76,0,0,1-2.72-2c-.3-1.17.21-2.69,3.4-4.14a.29.29,0,0,0,0-.54,13.68,13.68,0,0,1-4.65-3.6,1,1,0,0,0-1.7.58v6.71a.93.93,0,0,1-.17.54c-.38.54-1.34,1.74-2.38,1.79-1.35.07-4.39.07-4.39.07l-3.75-.1a2.31,2.31,0,0,1-2.3-2c-.09-1,.6-2.31,3.64-3.3a.94.94,0,0,0,.64-.89l.13-19.51a1.89,1.89,0,0,0-.33-1.08,21.77,21.77,0,0,1-2.85-18.46" transform="translate(-121.81 -85.28)"/><path class="cls-3" d="M193.59,344.34h-.11a2.19,2.19,0,0,1-2.18-2.18V321.09a13.51,13.51,0,0,1,4-9.64,13.12,13.12,0,0,1,9.64-4h2a2.14,2.14,0,0,1,1.57.64,2.2,2.2,0,0,1,.61,1.57v.07a2.08,2.08,0,0,1-.61,1.54,2.14,2.14,0,0,1-1.57.64h-2a8.81,8.81,0,0,0-6.46,2.68,9,9,0,0,0-2.68,6.46v21.06a2.19,2.19,0,0,1-2.18,2.18" transform="translate(-121.81 -85.28)"/><path class="cls-3" d="M173,258.75a2.16,2.16,0,0,0-1.54-.61h-.11a2.13,2.13,0,0,0-2.18,2.18V271q-7-6.21-14-6.21a18.43,18.43,0,1,0,18.42,18.53v-23A2.14,2.14,0,0,0,173,258.75Zm-7.93,34.38a13.29,13.29,0,0,1-9.85,4.11,14,14,0,0,1,0-28,13.29,13.29,0,0,1,9.85,4.11,13.92,13.92,0,0,1,0,19.74Z" transform="translate(-121.81 -85.28)"/><path class="cls-3" d="M218.64,257.91h10.09c7.66,0,12.79,4.36,12.79,19.85,0,15.27-4.74,19.85-13.4,19.85h-9.48Zm4.14,36.22h5.07c5.73,0,9.54-1.6,9.54-16.38,0-15.22-4.36-16.37-9.65-16.37h-5Z" transform="translate(-121.81 -85.28)"/><path class="cls-3" d="M269.52,261.38h-5.4v32.75h5.4v3.47H254.64v-3.47H260V261.38h-5.35v-3.47h14.89Z" transform="translate(-121.81 -85.28)"/><path class="cls-3" d="M306.9,261.38H290.41V275.5h11.85V279H290.41v15.16h16.87v3.47h-21v-39.7H306.9Z" transform="translate(-121.81 -85.28)"/><path class="cls-3" d="M318.92,257.91h10.31c9.92,0,10.81,8.93,10.81,11.25,0,4.08-1.54,7.83-7.06,11l10.69,17.48h-5L329,281.07c-2,.06-4,.06-6,.11v16.43h-4.14Zm8,19.74c5.62,0,8.93-2.87,8.93-8.71,0-5.29-2.2-7.55-8.77-7.55h-4.08v16.26Z" transform="translate(-121.81 -85.28)"/><path class="cls-3" d="M373.05,261.38H356.57V275.5h11.85V279H356.57v15.16h16.87v3.47h-21v-39.7h20.62Z" transform="translate(-121.81 -85.28)"/><path class="cls-3" d="M384.19,257.91H389l12.07,29.66h.16V257.91h4.14V298h-3.92l-13-32-.11.11v31.54h-4.13Z" transform="translate(-121.81 -85.28)"/><path class="cls-3" d="M218.64,307.38H229c10,0,10.84,8.82,10.84,11.11,0,4-1.55,7.73-7.08,10.84l10.72,17.26h-5l-9.67-16.34c-2,.05-4,.05-6,.11v16.23h-4.15Zm8.15,19.1c5.69,0,9-2.89,9-8.77,0-5.33-2.23-7.6-8.87-7.6h-4.13v16.37Z" transform="translate(-121.81 -85.28)"/><path class="cls-3" d="M272.92,310.81H256.39v13.94h11.89v3.43H256.39v15h16.92v3.43H252.25V307.38h20.67Z" transform="translate(-121.81 -85.28)"/><path class="cls-3" d="M301.5,315.88a5.72,5.72,0,0,0-5.8-5.83c-8.4,0-9,11.22-9,17.26,0,5.72.61,16.61,8.57,16.61,4.15,0,6.63-3,6.69-6.91h4.15c-.44,6.37-4.37,10.35-11,10.35-10.95,0-12.55-11.82-12.55-20.15,0-8.6,1.82-20.58,13-20.58a9.64,9.64,0,0,1,10,9.26Z" transform="translate(-121.81 -85.28)"/><path class="cls-3" d="M320.57,324.54h13.82V307.38h4.15v39.21h-4.15V328H320.57v18.62h-4.15V307.38h4.15Z" transform="translate(-121.81 -85.28)"/><path class="cls-3" d="M374,310.81H362.63v35.78h-4.15V310.81H347.37v-3.43H374Z" transform="translate(-121.81 -85.28)"/><path class="cls-3" d="M405.36,315.63v2l-21.17-3.87v-2.45l21.17-3.8v1.95l-17.79,3.09v0Z" transform="translate(-121.81 -85.28)"/><path class="cls-3" d="M405.26,331.38h-1.54l-17.59-7V332h-1.84v-9.74h1.58l17.56,7.13v-6.87h1.84Z" transform="translate(-121.81 -85.28)"/><path class="cls-3" d="M389,343.76v0l16.37.85v1.92l-21.17-1.31v-2l9.08-2.16-9.08-2.19v-2l21.17-1.43v1.93l-16.37.9v0l10.51,2.71Z" transform="translate(-121.81 -85.28)"/><path class="cls-4" d="M167.21,141.33S190.68,157,192,188a3.9,3.9,0,0,1-4,4H163.25a2.76,2.76,0,0,1-2.72-2c-.3-1.17.21-2.69,3.4-4.14a.29.29,0,0,0,0-.54,13.68,13.68,0,0,1-4.65-3.6,1,1,0,0,0-1.7.58V189a.93.93,0,0,1-.17.54c-.38.54-1.34,1.74-2.38,1.79-1.35.07-4.39.07-4.39.07l-3.75-.1a2.31,2.31,0,0,1-2.3-2c-.09-1,.6-2.31,3.64-3.3a.94.94,0,0,0,.64-.89L149,165.6a1.89,1.89,0,0,0-.33-1.08,21.77,21.77,0,0,1-2.85-18.46" transform="translate(-121.81 -85.28)"/><path class="cls-5" d="M191.86,191.71h-.11a2.19,2.19,0,0,1-2.18-2.18V168.46a13.51,13.51,0,0,1,4-9.64,13.12,13.12,0,0,1,9.64-4h2a2.14,2.14,0,0,1,1.57.64,2.2,2.2,0,0,1,.61,1.57v.07a2.08,2.08,0,0,1-.61,1.54,2.14,2.14,0,0,1-1.57.64h-2a8.81,8.81,0,0,0-6.46,2.68,9,9,0,0,0-2.68,6.46v21.06a2.19,2.19,0,0,1-2.18,2.18" transform="translate(-121.81 -85.28)"/><path class="cls-6" d="M171.28,106.12a2.16,2.16,0,0,0-1.54-.61h-.11a2.13,2.13,0,0,0-2.18,2.18v10.64q-7-6.21-14-6.21a18.43,18.43,0,0,0-13,31.45,18.42,18.42,0,0,0,31.45-12.92v-23A2.14,2.14,0,0,0,171.28,106.12Zm-7.93,34.38a13.29,13.29,0,0,1-9.85,4.11,14,14,0,0,1,0-28,13.29,13.29,0,0,1,9.85,4.11,13.92,13.92,0,0,1,0,19.74Z" transform="translate(-121.81 -85.28)"/><path class="cls-5" d="M216.91,105.28H227c7.66,0,12.79,4.36,12.79,19.85,0,15.27-4.74,19.85-13.4,19.85h-9.48ZM221,141.51h5.07c5.73,0,9.54-1.6,9.54-16.38,0-15.22-4.36-16.37-9.65-16.37h-5Z" transform="translate(-121.81 -85.28)"/><path class="cls-5" d="M267.79,108.76h-5.4v32.75h5.4V145H252.91v-3.47h5.35V108.76h-5.35v-3.47h14.89Z" transform="translate(-121.81 -85.28)"/><path class="cls-5" d="M305.17,108.76H288.68v14.11h11.85v3.47H288.68v15.16h16.87V145h-21v-39.7h20.62Z" transform="translate(-121.81 -85.28)"/><path class="cls-5" d="M317.18,105.28h10.31c9.92,0,10.81,8.93,10.81,11.25,0,4.08-1.54,7.83-7.06,11L341.94,145h-5l-9.65-16.54c-2,.06-4,.06-6,.11V145h-4.14Zm8,19.74c5.62,0,8.93-2.87,8.93-8.71,0-5.29-2.2-7.55-8.77-7.55h-4.08V125Z" transform="translate(-121.81 -85.28)"/><path class="cls-5" d="M371.32,108.76H354.84v14.11h11.85v3.47H354.84v15.16h16.87V145h-21v-39.7h20.62Z" transform="translate(-121.81 -85.28)"/><path class="cls-5" d="M382.46,105.28h4.8l12.07,29.66h.16V105.28h4.14v40.08h-3.92l-13-32-.11.11V145h-4.13Z" transform="translate(-121.81 -85.28)"/><path class="cls-5" d="M216.91,154.75h10.34c10,0,10.84,8.82,10.84,11.11,0,4-1.55,7.73-7.08,10.84L241.73,194h-5L227,177.62c-2,.05-4,.05-6,.11V194h-4.15Zm8.15,19.1c5.69,0,9-2.89,9-8.77,0-5.33-2.23-7.6-8.87-7.6h-4.13v16.37Z" transform="translate(-121.81 -85.28)"/><path class="cls-5" d="M271.19,158.18H254.66v13.94h11.89v3.43H254.66v15h16.92V194H250.52V154.75h20.67Z" transform="translate(-121.81 -85.28)"/><path class="cls-5" d="M299.77,163.25a5.72,5.72,0,0,0-5.8-5.83c-8.4,0-9,11.22-9,17.26,0,5.72.61,16.61,8.57,16.61,4.15,0,6.63-3,6.69-6.91h4.15c-.44,6.37-4.37,10.35-11,10.35-10.95,0-12.55-11.82-12.55-20.15,0-8.6,1.82-20.58,13-20.58a9.64,9.64,0,0,1,10,9.26Z" transform="translate(-121.81 -85.28)"/><path class="cls-5" d="M318.84,171.91h13.82V154.75h4.15V194h-4.15V175.34H318.84V194h-4.15V154.75h4.15Z" transform="translate(-121.81 -85.28)"/><path class="cls-5" d="M372.23,158.18H360.9V194h-4.15V158.18H345.64v-3.43h26.59Z" transform="translate(-121.81 -85.28)"/><path class="cls-5" d="M403.63,163v2l-21.17-3.87v-2.45l21.17-3.8v1.95l-17.79,3.09v0Z" transform="translate(-121.81 -85.28)"/><path class="cls-5" d="M403.53,178.76H402l-17.59-7v7.6h-1.84v-9.74h1.58l17.56,7.13v-6.87h1.84Z" transform="translate(-121.81 -85.28)"/><path class="cls-5" d="M387.26,191.13v0l16.37.85V194l-21.17-1.31v-2l9.08-2.16-9.08-2.19v-2l21.17-1.43v1.93l-16.37.9v0l10.51,2.71Z" transform="translate(-121.81 -85.28)"/><path class="cls-4" d="M489.42,140.28s23.47,15.63,24.8,46.66a3.9,3.9,0,0,1-4,4H485.47a2.76,2.76,0,0,1-2.72-2c-.3-1.17.21-2.69,3.4-4.14a.29.29,0,0,0,0-.54,13.68,13.68,0,0,1-4.65-3.6,1,1,0,0,0-1.7.58V188a.93.93,0,0,1-.17.54c-.38.54-1.34,1.74-2.38,1.79-1.35.07-4.39.07-4.39.07l-3.75-.1a2.31,2.31,0,0,1-2.3-2c-.09-1,.6-2.31,3.64-3.3a.94.94,0,0,0,.64-.89l.13-19.51a1.89,1.89,0,0,0-.33-1.08A21.77,21.77,0,0,1,468,145" transform="translate(-121.81 -85.28)"/><path class="cls-5" d="M514.07,190.66H514a2.19,2.19,0,0,1-2.18-2.18V167.42a13.51,13.51,0,0,1,4-9.64,13.12,13.12,0,0,1,9.64-4h2a2.14,2.14,0,0,1,1.57.64,2.2,2.2,0,0,1,.61,1.57v.07a2.08,2.08,0,0,1-.61,1.54,2.14,2.14,0,0,1-1.57.64h-2a8.81,8.81,0,0,0-6.46,2.68,9,9,0,0,0-2.68,6.46v21.06a2.19,2.19,0,0,1-2.18,2.18" transform="translate(-121.81 -85.28)"/><path class="cls-6" d="M493.49,105.07a2.16,2.16,0,0,0-1.54-.61h-.11a2.13,2.13,0,0,0-2.18,2.18v10.64q-7-6.21-14-6.21a18.43,18.43,0,0,0-13,31.45,18.42,18.42,0,0,0,31.45-12.92v-23A2.14,2.14,0,0,0,493.49,105.07Zm-7.93,34.38a13.29,13.29,0,0,1-9.85,4.11,14,14,0,0,1,0-28,13.29,13.29,0,0,1,9.85,4.11,13.92,13.92,0,0,1,0,19.74Z" transform="translate(-121.81 -85.28)"/><path class="cls-5" d="M539.12,104.24h10.09c7.66,0,12.79,4.36,12.79,19.85,0,15.27-4.74,19.85-13.4,19.85h-9.48Zm4.14,36.22h5.07c5.73,0,9.54-1.6,9.54-16.38,0-15.22-4.36-16.37-9.65-16.37h-5Z" transform="translate(-121.81 -85.28)"/><path class="cls-5" d="M590,107.71h-5.4v32.75H590v3.47H575.12v-3.47h5.35V107.71h-5.35v-3.47H590Z" transform="translate(-121.81 -85.28)"/><path class="cls-5" d="M627.38,107.71H610.9v14.11h11.85v3.47H610.9v15.16h16.87v3.47h-21v-39.7h20.62Z" transform="translate(-121.81 -85.28)"/><path class="cls-5" d="M639.4,104.24h10.31c9.92,0,10.81,8.93,10.81,11.25,0,4.08-1.54,7.83-7.06,11l10.69,17.48h-5l-9.65-16.54c-2,.06-4,.06-6,.11v16.43H639.4Zm8,19.74c5.62,0,8.93-2.87,8.93-8.71,0-5.29-2.2-7.55-8.77-7.55h-4.08V124Z" transform="translate(-121.81 -85.28)"/><path class="cls-5" d="M693.54,107.71H677v14.11H688.9v3.47H677v15.16h16.87v3.47h-21v-39.7h20.62Z" transform="translate(-121.81 -85.28)"/><path class="cls-5" d="M704.67,104.24h4.8l12.07,29.66h.16V104.24h4.14v40.08h-3.92l-13-32-.11.11v31.54h-4.13Z" transform="translate(-121.81 -85.28)"/><path class="cls-5" d="M539.12,153.71h10.34c10,0,10.84,8.82,10.84,11.11,0,4-1.55,7.73-7.08,10.84l10.72,17.26h-5l-9.67-16.34c-2,.05-4,.05-6,.11v16.23h-4.15Zm8.15,19.1c5.69,0,9-2.89,9-8.77,0-5.33-2.23-7.6-8.87-7.6H543.3v16.37Z" transform="translate(-121.81 -85.28)"/><path class="cls-5" d="M593.4,157.14H576.87v13.94h11.89v3.43H576.87v15h16.92v3.43H572.73V153.71H593.4Z" transform="translate(-121.81 -85.28)"/><path class="cls-5" d="M622,162.2a5.72,5.72,0,0,0-5.8-5.83c-8.4,0-9,11.22-9,17.26,0,5.72.61,16.61,8.57,16.61,4.15,0,6.63-3,6.69-6.91h4.15c-.44,6.37-4.37,10.35-11,10.35-10.95,0-12.55-11.82-12.55-20.15,0-8.6,1.82-20.58,13-20.58a9.64,9.64,0,0,1,10,9.26Z" transform="translate(-121.81 -85.28)"/><path class="cls-5" d="M641,170.86h13.82V153.71H659v39.21h-4.15V174.29H641v18.62H636.9V153.71H641Z" transform="translate(-121.81 -85.28)"/><path class="cls-5" d="M694.44,157.14H683.11v35.78H679V157.14H667.85v-3.43h26.59Z" transform="translate(-121.81 -85.28)"/><path class="cls-5" d="M725.84,162v2l-21.17-3.87v-2.45l21.17-3.8v1.95L708,158.85v0Z" transform="translate(-121.81 -85.28)"/><path class="cls-5" d="M725.74,177.71h-1.54l-17.59-7v7.6h-1.84v-9.74h1.58l17.56,7.13V168.8h1.84Z" transform="translate(-121.81 -85.28)"/><path class="cls-5" d="M709.47,190.09v0l16.37.85v1.92l-21.17-1.31v-2l9.08-2.16-9.08-2.19v-2l21.17-1.43v1.93l-16.37.9v0L720,187.4Z" transform="translate(-121.81 -85.28)"/><rect class="cls-3" x="335.47" width="18.42" height="131.34"/><path class="cls-7" d="M497.5,285.28s23.47,15.63,24.8,46.66a3.9,3.9,0,0,1-4,4H493.54a2.76,2.76,0,0,1-2.72-2c-.3-1.17.21-2.69,3.4-4.14a.29.29,0,0,0,0-.54,13.68,13.68,0,0,1-4.65-3.6,1,1,0,0,0-1.7.58V333a.93.93,0,0,1-.17.54c-.38.54-1.34,1.74-2.38,1.79-1.35.07-4.39.07-4.39.07l-3.75-.1a2.31,2.31,0,0,1-2.3-2c-.09-1,.6-2.31,3.64-3.3a.94.94,0,0,0,.64-.89l.13-19.51a1.89,1.89,0,0,0-.33-1.08A21.77,21.77,0,0,1,476.12,290" transform="translate(-121.81 -85.28)"/><path d="M522.15,335.66H522a2.19,2.19,0,0,1-2.18-2.18V312.42a13.51,13.51,0,0,1,4-9.64,13.12,13.12,0,0,1,9.64-4h2a2.14,2.14,0,0,1,1.57.64,2.2,2.2,0,0,1,.61,1.57v.07a2.08,2.08,0,0,1-.61,1.54,2.14,2.14,0,0,1-1.57.64h-2A8.81,8.81,0,0,0,527,306a9,9,0,0,0-2.68,6.46v21.06a2.19,2.19,0,0,1-2.18,2.18" transform="translate(-121.81 -85.28)"/><path class="cls-8" d="M501.56,250.07a2.16,2.16,0,0,0-1.54-.61h-.11a2.13,2.13,0,0,0-2.18,2.18v10.64q-7-6.21-14-6.21A18.43,18.43,0,1,0,502.2,274.6v-23A2.14,2.14,0,0,0,501.56,250.07Zm-7.93,34.38a13.29,13.29,0,0,1-9.85,4.11,14,14,0,0,1,0-28,13.29,13.29,0,0,1,9.85,4.11,13.92,13.92,0,0,1,0,19.74Z" transform="translate(-121.81 -85.28)"/><path d="M547.19,249.24h10.09c7.66,0,12.79,4.36,12.79,19.85,0,15.27-4.74,19.85-13.4,19.85h-9.48Zm4.14,36.22h5.07c5.73,0,9.54-1.6,9.54-16.38,0-15.22-4.36-16.37-9.65-16.37h-5Z" transform="translate(-121.81 -85.28)"/><path d="M598.08,252.71h-5.4v32.75h5.4v3.47H583.19v-3.47h5.35V252.71h-5.35v-3.47h14.89Z" transform="translate(-121.81 -85.28)"/><path d="M635.46,252.71H619v14.11h11.85v3.47H619v15.16h16.87v3.47h-21v-39.7h20.62Z" transform="translate(-121.81 -85.28)"/><path d="M647.47,249.24h10.31c9.92,0,10.81,8.93,10.81,11.25,0,4.08-1.54,7.83-7.06,11l10.69,17.48h-5l-9.65-16.54c-2,.06-4,.06-6,.11v16.43h-4.14Zm8,19.74c5.62,0,8.93-2.87,8.93-8.71,0-5.29-2.2-7.55-8.77-7.55h-4.08V269Z" transform="translate(-121.81 -85.28)"/><path d="M701.61,252.71H685.12v14.11H697v3.47H685.12v15.16H702v3.47H681v-39.7h20.62Z" transform="translate(-121.81 -85.28)"/><path d="M712.74,249.24h4.8l12.07,29.66h.16V249.24h4.14v40.08H730l-13-32-.11.11v31.54h-4.13Z" transform="translate(-121.81 -85.28)"/><path d="M547.19,298.71h10.34c10,0,10.84,8.82,10.84,11.11,0,4-1.55,7.73-7.08,10.84L572,337.92h-5l-9.67-16.34c-2,.05-4,.05-6,.11v16.23h-4.15Zm8.15,19.1c5.69,0,9-2.89,9-8.77,0-5.33-2.23-7.6-8.87-7.6h-4.13v16.37Z" transform="translate(-121.81 -85.28)"/><path d="M601.48,302.14H584.95v13.94h11.89v3.43H584.95v15h16.92v3.43H580.8V298.71h20.67Z" transform="translate(-121.81 -85.28)"/><path d="M630.05,307.2a5.72,5.72,0,0,0-5.8-5.83c-8.4,0-9,11.22-9,17.26,0,5.72.61,16.61,8.57,16.61,4.15,0,6.63-3,6.69-6.91h4.15c-.44,6.37-4.37,10.35-11,10.35-10.95,0-12.55-11.82-12.55-20.15,0-8.6,1.82-20.58,13-20.58a9.64,9.64,0,0,1,10,9.26Z" transform="translate(-121.81 -85.28)"/><path d="M649.12,315.86h13.82V298.71h4.15v39.21h-4.15V319.29H649.12v18.62H645V298.71h4.15Z" transform="translate(-121.81 -85.28)"/><path d="M702.52,302.14H691.19v35.78H687V302.14H675.93v-3.43h26.59Z" transform="translate(-121.81 -85.28)"/><path d="M733.91,307v2l-21.17-3.87v-2.45l21.17-3.8v1.95l-17.79,3.09v0Z" transform="translate(-121.81 -85.28)"/><path d="M733.81,322.71h-1.54l-17.59-7v7.6h-1.84v-9.74h1.58L732,320.67V313.8h1.84Z" transform="translate(-121.81 -85.28)"/><path d="M717.55,335.09v0l16.37.85v1.92l-21.17-1.31v-2l9.08-2.16-9.08-2.19v-2l21.17-1.43v1.93l-16.37.9v0l10.51,2.71Z" transform="translate(-121.81 -85.28)"/><path class="cls-4" d="M369.94,432.75s23.47,15.63,24.8,46.66a3.9,3.9,0,0,1-4,4H366a2.76,2.76,0,0,1-2.72-2c-.3-1.17.21-2.69,3.4-4.14a.29.29,0,0,0,0-.54,13.68,13.68,0,0,1-4.65-3.6,1,1,0,0,0-1.7.58v6.71a.93.93,0,0,1-.17.54c-.38.54-1.34,1.74-2.38,1.79-1.35.07-4.39.07-4.39.07l-3.75-.1a2.31,2.31,0,0,1-2.3-2c-.09-1,.6-2.31,3.64-3.3a.94.94,0,0,0,.64-.89l.13-19.51a1.89,1.89,0,0,0-.33-1.08,21.77,21.77,0,0,1-2.85-18.46" transform="translate(-121.81 -85.28)"/><path class="cls-5" d="M394.59,483.12h-.11a2.19,2.19,0,0,1-2.18-2.18V459.88a13.51,13.51,0,0,1,4-9.64,13.12,13.12,0,0,1,9.64-4h2a2.14,2.14,0,0,1,1.57.64,2.2,2.2,0,0,1,.61,1.57v.07a2.08,2.08,0,0,1-.61,1.54,2.14,2.14,0,0,1-1.57.64h-2a8.81,8.81,0,0,0-6.46,2.68,9,9,0,0,0-2.68,6.46v21.06a2.19,2.19,0,0,1-2.18,2.18" transform="translate(-121.81 -85.28)"/><path class="cls-6" d="M374,397.53a2.16,2.16,0,0,0-1.54-.61h-.11a2.13,2.13,0,0,0-2.18,2.18v10.64q-7-6.21-14-6.21a18.43,18.43,0,1,0,18.42,18.53v-23A2.14,2.14,0,0,0,374,397.53Zm-7.93,34.38a13.29,13.29,0,0,1-9.85,4.11,14,14,0,0,1,0-28,13.29,13.29,0,0,1,9.85,4.11,13.92,13.92,0,0,1,0,19.74Z" transform="translate(-121.81 -85.28)"/><path class="cls-5" d="M136.72,395.43h10.09c7.66,0,12.79,4.36,12.79,19.85,0,15.27-4.74,19.85-13.4,19.85h-9.48Zm4.14,36.22h5.07c5.73,0,9.54-1.6,9.54-16.38,0-15.22-4.36-16.37-9.65-16.37h-5Z" transform="translate(-121.81 -85.28)"/><path class="cls-5" d="M187.6,398.91h-5.4v32.75h5.4v3.47H172.72v-3.47h5.35V398.91h-5.35v-3.47H187.6Z" transform="translate(-121.81 -85.28)"/><path class="cls-5" d="M225,398.91H208.5V413h11.85v3.47H208.5v15.16h16.87v3.47h-21v-39.7H225Z" transform="translate(-121.81 -85.28)"/><path class="cls-5" d="M237,395.43h10.31c9.92,0,10.81,8.93,10.81,11.25,0,4.08-1.54,7.83-7.06,11l10.69,17.48h-5l-9.65-16.54c-2,.06-4,.06-6,.11v16.43H237Zm8,19.74c5.62,0,8.93-2.87,8.93-8.71,0-5.29-2.2-7.55-8.77-7.55h-4.08v16.26Z" transform="translate(-121.81 -85.28)"/><path class="cls-5" d="M291.13,398.91H274.65V413H286.5v3.47H274.65v15.16h16.87v3.47h-21v-39.7h20.62Z" transform="translate(-121.81 -85.28)"/><path class="cls-5" d="M302.27,395.43h4.8l12.07,29.66h.16V395.43h4.14v40.08h-3.92l-13-32-.11.11v31.54h-4.13Z" transform="translate(-121.81 -85.28)"/><path class="cls-5" d="M136.72,444.91h10.34c10,0,10.84,8.82,10.84,11.11,0,4-1.55,7.73-7.08,10.84l10.72,17.26h-5l-9.67-16.34c-2,.05-4,.05-6,.11v16.23h-4.15Zm8.15,19.1c5.69,0,9-2.89,9-8.77,0-5.33-2.23-7.6-8.87-7.6H140.9V464Z" transform="translate(-121.81 -85.28)"/><path class="cls-5" d="M191,448.34H174.47v13.94h11.89v3.43H174.47v15h16.92v3.43H170.33V444.91H191Z" transform="translate(-121.81 -85.28)"/><path class="cls-5" d="M219.58,453.4a5.72,5.72,0,0,0-5.8-5.83c-8.4,0-9,11.22-9,17.26,0,5.72.61,16.61,8.57,16.61,4.15,0,6.63-3,6.69-6.91h4.15c-.44,6.37-4.37,10.35-11,10.35-10.95,0-12.55-11.82-12.55-20.15,0-8.6,1.82-20.58,13-20.58a9.64,9.64,0,0,1,10,9.26Z" transform="translate(-121.81 -85.28)"/><path class="cls-5" d="M238.65,462.06h13.82V444.91h4.15v39.21h-4.15V465.49H238.65v18.62H234.5V444.91h4.15Z" transform="translate(-121.81 -85.28)"/><path class="cls-5" d="M292,448.34H280.71v35.78h-4.15V448.34H265.45v-3.43H292Z" transform="translate(-121.81 -85.28)"/><path class="cls-5" d="M323.44,453.15v2l-21.17-3.87v-2.45l21.17-3.8V447L305.65,450v0Z" transform="translate(-121.81 -85.28)"/><path class="cls-5" d="M323.34,468.91h-1.54l-17.59-7v7.6h-1.84v-9.74h1.58l17.56,7.13V460h1.84Z" transform="translate(-121.81 -85.28)"/><path class="cls-5" d="M307.07,481.28v0l16.37.85v1.92l-21.17-1.31v-2l9.08-2.16-9.08-2.19v-2L323.44,473v1.93l-16.37.9v0l10.51,2.71Z" transform="translate(-121.81 -85.28)"/><path class="cls-5" d="M550.42,397.24h10.09c7.66,0,12.79,4.36,12.79,19.85,0,15.27-4.74,19.85-13.4,19.85h-9.48Zm4.14,36.22h5.07c5.73,0,9.54-1.6,9.54-16.38,0-15.22-4.36-16.37-9.65-16.37h-5Z" transform="translate(-121.81 -85.28)"/><path class="cls-5" d="M601.31,400.71h-5.4v32.75h5.4v3.47H586.42v-3.47h5.35V400.71h-5.35v-3.47h14.89Z" transform="translate(-121.81 -85.28)"/><path class="cls-5" d="M638.68,400.71H622.2v14.11h11.85v3.47H622.2v15.16h16.87v3.47h-21v-39.7h20.62Z" transform="translate(-121.81 -85.28)"/><path class="cls-5" d="M650.7,397.24H661c9.92,0,10.81,8.93,10.81,11.25,0,4.08-1.54,7.83-7.06,11l10.69,17.48h-5l-9.65-16.54c-2,.06-4,.06-6,.11v16.43H650.7Zm8,19.74c5.62,0,8.93-2.87,8.93-8.71,0-5.29-2.2-7.55-8.77-7.55h-4.08V417Z" transform="translate(-121.81 -85.28)"/><path class="cls-5" d="M704.84,400.71H688.35v14.11H700.2v3.47H688.35v15.16h16.87v3.47h-21v-39.7h20.62Z" transform="translate(-121.81 -85.28)"/><path class="cls-5" d="M716,397.24h4.8l12.07,29.66H733V397.24h4.14v40.08h-3.92l-13-32-.11.11v31.54H716Z" transform="translate(-121.81 -85.28)"/><path class="cls-5" d="M550.42,446.71h10.34c10,0,10.84,8.82,10.84,11.11,0,4-1.55,7.73-7.08,10.84l10.72,17.26h-5l-9.67-16.34c-2,.05-4,.05-6,.11v16.23h-4.15Zm8.15,19.1c5.69,0,9-2.89,9-8.77,0-5.33-2.23-7.6-8.87-7.6h-4.13v16.37Z" transform="translate(-121.81 -85.28)"/><path class="cls-5" d="M604.7,450.14H588.17v13.94h11.89v3.43H588.17v15h16.92v3.43H584V446.71H604.7Z" transform="translate(-121.81 -85.28)"/><path class="cls-5" d="M633.28,455.21a5.72,5.72,0,0,0-5.8-5.83c-8.4,0-9,11.22-9,17.26,0,5.72.61,16.61,8.57,16.61,4.15,0,6.63-3,6.69-6.91h4.15c-.44,6.37-4.37,10.35-11,10.35-10.95,0-12.55-11.82-12.55-20.15,0-8.6,1.82-20.58,13-20.58a9.64,9.64,0,0,1,10,9.26Z" transform="translate(-121.81 -85.28)"/><path class="cls-5" d="M652.35,463.86h13.82V446.71h4.15v39.21h-4.15V467.29H652.35v18.62H648.2V446.71h4.15Z" transform="translate(-121.81 -85.28)"/><path class="cls-5" d="M705.75,450.14H694.41v35.78h-4.15V450.14H679.16v-3.43h26.59Z" transform="translate(-121.81 -85.28)"/><path class="cls-5" d="M737.14,455v2L716,453.06v-2.45l21.17-3.8v1.95l-17.79,3.09v0Z" transform="translate(-121.81 -85.28)"/><path class="cls-5" d="M737,470.71H735.5l-17.59-7v7.6h-1.84v-9.74h1.58l17.56,7.13V461.8H737Z" transform="translate(-121.81 -85.28)"/><path class="cls-5" d="M720.77,483.09v0l16.37.85v1.92L716,484.61v-2l9.08-2.16L716,478.22v-2l21.17-1.43v1.93l-16.37.9v0l10.51,2.71Z" transform="translate(-121.81 -85.28)"/></svg>