<svg id="Layer_1" data-name="Layer 1" xmlns="http://www.w3.org/2000/svg" viewBox="0 0 562.25 349.36"><defs><style>.cls-1{fill:#a9d1d3;}.cls-2{fill:#4e4a4b;}.cls-3{fill:#d67e43;}.cls-4{font-size:12px;fill:#fff;font-family:WorkSans-Regular, Work Sans;}.cls-5{letter-spacing:0.05em;}.cls-17,.cls-6{letter-spacing:2.66em;}.cls-7{letter-spacing:1.58em;}.cls-8{letter-spacing:-0.01em;}.cls-9{letter-spacing:-0.01em;}.cls-10{letter-spacing:0em;}.cls-11{letter-spacing:1.23em;}.cls-12{letter-spacing:2.6em;}.cls-13{letter-spacing:-0.01em;}.cls-14{letter-spacing:-0.01em;}.cls-15{letter-spacing:1.35em;}.cls-16,.cls-17,.cls-27,.cls-33{fill:#222221;}.cls-16{letter-spacing:-0.32em;}.cls-18{letter-spacing:-0.01em;}.cls-19{letter-spacing:-0.04em;}.cls-20{letter-spacing:0em;}.cls-21{letter-spacing:1.49em;}.cls-22{letter-spacing:-0.01em;}.cls-23{letter-spacing:-0.02em;}.cls-24{letter-spacing:-0.01em;}.cls-25{letter-spacing:-0.03em;}.cls-26{letter-spacing:1.76em;}.cls-27{letter-spacing:2.16em;}.cls-28{letter-spacing:1.41em;}.cls-29{letter-spacing:-0.02em;}.cls-30{letter-spacing:-0.07em;}.cls-31{letter-spacing:-0.04em;}.cls-32{letter-spacing:-0.23em;}.cls-33{letter-spacing:1.92em;}</style></defs><title>kleuren</title><rect class="cls-1" width="160.33" height="329.3"/><rect class="cls-2" x="374.84" width="160.33" height="329.3"/><rect class="cls-3" x="187.42" width="160.33" height="329.3"/><text class="cls-4" transform="translate(9.12 258.95)">HEX: <tspan class="cls-5" x="31.32" y="0">	</tspan><tspan class="cls-6" x="36" y="0">	</tspan><tspan x="72" y="0">#a9d1d3</tspan><tspan class="cls-7" x="120.97" y="0">	</tspan><tspan class="cls-8" x="0" y="14.4">R</tspan><tspan x="7.91" y="14.4">GB: </tspan><tspan class="cls-9" x="32.08" y="14.4">	</tspan><tspan class="cls-6" x="36" y="14.4">	</tspan><tspan x="72" y="14.4">16</tspan><tspan class="cls-9" x="84.32" y="14.4">9</tspan><tspan class="cls-10" x="91.63" y="14.4">, 20</tspan><tspan class="cls-9" x="113.38" y="14.4">9</tspan><tspan x="120.68" y="14.4" xml:space="preserve">, 211    </tspan><tspan class="cls-11" x="161.15" y="14.4">	</tspan><tspan x="0" y="28.8">CMYK:</tspan><tspan class="cls-12" x="36.77" y="28.8">	</tspan><tspan x="72" y="28.8">45, </tspan><tspan class="cls-13" x="93.6" y="28.8">0</tspan><tspan x="100.9" y="28.8">, 2</tspan><tspan class="cls-13" x="115.18" y="28.8">0</tspan><tspan x="122.47" y="28.8">, 0</tspan><tspan x="0" y="57.6">Pa</tspan><tspan class="cls-14" x="14.11" y="57.6">n</tspan><tspan x="21.46" y="57.6">tone:</tspan><tspan class="cls-15" x="51.73" y="57.6">	</tspan><tspan x="72" y="57.6">318 C </tspan><tspan class="cls-16" x="107.71" y="57.6">	</tspan><tspan class="cls-17" x="108" y="57.6" xml:space="preserve">		</tspan><tspan class="cls-17"><tspan x="0" y="72" xml:space="preserve">		</tspan></tspan></text><text class="cls-4" transform="translate(195.23 258.95)">HEX: <tspan class="cls-5" x="31.32" y="0">	</tspan><tspan class="cls-6" x="36" y="0">	</tspan><tspan x="72" y="0">#d</tspan><tspan class="cls-18" x="87.24" y="0">6</tspan><tspan class="cls-19" x="94.54" y="0">7</tspan><tspan class="cls-20" x="100.79" y="0">e43</tspan><tspan class="cls-21" x="122.09" y="0">	</tspan><tspan class="cls-8" x="0" y="14.4">R</tspan><tspan x="7.91" y="14.4">GB: </tspan><tspan class="cls-9" x="32.08" y="14.4">	</tspan><tspan class="cls-6" x="36" y="14.4">	</tspan><tspan x="72" y="14.4">21</tspan><tspan class="cls-22" x="83.9" y="14.4">4</tspan><tspan x="91.1" y="14.4">,</tspan><tspan class="cls-23" x="94.3" y="14.4"> </tspan><tspan x="98.15" y="14.4">126, </tspan><tspan class="cls-24" x="124.75" y="14.4">6</tspan><tspan class="cls-25" x="132.05" y="14.4">7</tspan><tspan x="138.42" y="14.4" xml:space="preserve">    </tspan><tspan class="cls-26" x="154.79" y="14.4">	</tspan><tspan x="0" y="28.8">CMYK:</tspan><tspan class="cls-12" x="36.77" y="28.8">	</tspan><tspan class="cls-13" x="72" y="28.8">0</tspan><tspan x="79.3" y="28.8">, 6</tspan><tspan class="cls-13" x="94" y="28.8">0</tspan><tspan x="101.29" y="28.8">, 8</tspan><tspan class="cls-13" x="115.97" y="28.8">0</tspan><tspan x="123.26" y="28.8">, 0</tspan><tspan x="0" y="57.6">Pa</tspan><tspan class="cls-14" x="14.11" y="57.6">n</tspan><tspan x="21.46" y="57.6">tone:</tspan><tspan class="cls-15" x="51.73" y="57.6">	</tspan><tspan x="72" y="57.6">1575 C </tspan><tspan class="cls-27" x="114.02" y="57.6">	</tspan><tspan class="cls-17" x="144" y="57.6">	</tspan><tspan class="cls-17"><tspan x="0" y="72" xml:space="preserve">			</tspan></tspan></text><text class="cls-4" transform="translate(382.25 258.95)">HEX: <tspan class="cls-5" x="31.32" y="0">	</tspan><tspan class="cls-6" x="36" y="0">	</tspan><tspan x="72" y="0">#4e4a4b</tspan><tspan class="cls-28" x="123" y="0">	</tspan><tspan class="cls-8" x="0" y="14.4">R</tspan><tspan x="7.91" y="14.4">GB: </tspan><tspan class="cls-9" x="32.08" y="14.4">	</tspan><tspan class="cls-6" x="36" y="14.4">	</tspan><tspan class="cls-29" x="72" y="14.4">7</tspan><tspan class="cls-10" x="78.49" y="14.4">8,</tspan><tspan class="cls-19" x="89.08" y="14.4"> </tspan><tspan class="cls-30" x="92.69" y="14.4">7</tspan><tspan class="cls-22" x="98.62" y="14.4">4</tspan><tspan x="105.82" y="14.4">,</tspan><tspan class="cls-31" x="109.01" y="14.4"> </tspan><tspan class="cls-10" x="112.62" y="14.4" xml:space="preserve">75    </tspan><tspan class="cls-32" x="142.7" y="14.4">	</tspan><tspan x="0" y="28.8">CMYK:</tspan><tspan class="cls-12" x="36.77" y="28.8">	</tspan><tspan x="72" y="28.8">6</tspan><tspan class="cls-13" x="79.42" y="28.8">0</tspan><tspan x="86.71" y="28.8">, 55, 5</tspan><tspan class="cls-13" x="122.23" y="28.8">0</tspan><tspan x="129.53" y="28.8">,50</tspan><tspan x="0" y="57.6">Pa</tspan><tspan class="cls-14" x="14.11" y="57.6">n</tspan><tspan x="21.46" y="57.6">tone:</tspan><tspan class="cls-15" x="51.73" y="57.6">	</tspan><tspan x="72" y="57.6">7540 C </tspan><tspan class="cls-33" x="116.93" y="57.6">	</tspan><tspan class="cls-17" x="144" y="57.6">	</tspan><tspan class="cls-17"><tspan x="0" y="72" xml:space="preserve">			</tspan></tspan></text></svg>