<svg xmlns="http://www.w3.org/2000/svg" viewBox="0 0 268.56 89.44"><defs><style>.cls-1{fill:none;stroke:#aad1d0;stroke-linecap:round;stroke-miterlimit:10;stroke-width:4px;}.cls-2{fill:#4a4a4a;}.cls-3{fill:#d38247;}</style></defs><title>Asset 1</title><g id="Layer_2" data-name="Layer 2"><g id="Logo"><path class="cls-1" d="M32.14,36s23.47,15.63,24.8,46.66a3.9,3.9,0,0,1-4,4H28.18a2.76,2.76,0,0,1-2.72-2c-.3-1.17.21-2.69,3.4-4.14a.29.29,0,0,0,0-.54,13.68,13.68,0,0,1-4.65-3.6,1,1,0,0,0-1.7.58v6.71a.93.93,0,0,1-.17.54C22,84.79,21,86,20,86.05c-1.35.07-4.39.07-4.39.07L11.82,86a2.31,2.31,0,0,1-2.3-2c-.09-1,.6-2.31,3.64-3.3a.94.94,0,0,0,.64-.89l.13-19.51a1.89,1.89,0,0,0-.33-1.08,21.77,21.77,0,0,1-2.85-18.46"/><path class="cls-2" d="M56.79,86.42h-.11a2.19,2.19,0,0,1-2.18-2.18V63.18a13.51,13.51,0,0,1,4-9.64,13.12,13.12,0,0,1,9.64-4h2a2.14,2.14,0,0,1,1.57.64,2.2,2.2,0,0,1,.61,1.57v.07a2.08,2.08,0,0,1-.61,1.54,2.14,2.14,0,0,1-1.57.64h-2a8.81,8.81,0,0,0-6.46,2.68A9,9,0,0,0,59,63.18V84.25a2.19,2.19,0,0,1-2.18,2.18"/><path class="cls-3" d="M36.2.83A2.16,2.16,0,0,0,34.67.23h-.11a2.13,2.13,0,0,0-2.18,2.18V13q-7-6.21-14-6.21a17.76,17.76,0,0,0-13,5.39A17.76,17.76,0,0,0,0,25.25a17.75,17.75,0,0,0,5.39,13,17.75,17.75,0,0,0,13,5.39,17.77,17.77,0,0,0,13-5.36,17.8,17.8,0,0,0,5.43-13v-23A2.14,2.14,0,0,0,36.2.83ZM28.28,35.21a13.29,13.29,0,0,1-9.85,4.11,13.48,13.48,0,0,1-9.89-4.11,13.5,13.5,0,0,1-4.07-9.85,13.54,13.54,0,0,1,4.07-9.89,13.48,13.48,0,0,1,9.89-4.11,13.29,13.29,0,0,1,9.85,4.11,13.48,13.48,0,0,1,4.11,9.89A13.44,13.44,0,0,1,28.28,35.21Z"/><path class="cls-2" d="M81.83,0H91.92c7.66,0,12.79,4.36,12.79,19.85,0,15.27-4.74,19.85-13.4,19.85H81.83ZM86,36.22H91c5.73,0,9.54-1.6,9.54-16.38,0-15.22-4.36-16.37-9.65-16.37H86Z"/><path class="cls-2" d="M132.72,3.47h-5.4V36.22h5.4V39.7H117.83V36.22h5.35V3.47h-5.35V0h14.89Z"/><path class="cls-2" d="M170.1,3.47H153.61V17.59h11.85v3.47H153.61V36.22h16.87V39.7h-21V0H170.1Z"/><path class="cls-2" d="M182.11,0h10.31c9.92,0,10.81,8.93,10.81,11.25,0,4.08-1.54,7.83-7.06,11L206.87,39.7h-5L192.2,23.16c-2,.06-4,.06-6,.11V39.7h-4.14Zm8,19.74c5.62,0,8.93-2.87,8.93-8.71,0-5.29-2.2-7.55-8.77-7.55h-4.08V19.74Z"/><path class="cls-2" d="M236.25,3.47H219.76V17.59h11.85v3.47H219.76V36.22h16.87V39.7h-21V0h20.62Z"/><path class="cls-2" d="M247.38,0h4.8l12.07,29.66h.16V0h4.14V40.08h-3.92l-13-32-.11.11V39.7h-4.13Z"/><path class="cls-2" d="M81.83,49.47H92.17c10,0,10.84,8.82,10.84,11.11,0,4-1.55,7.73-7.08,10.84l10.72,17.26h-5L92,72.34c-2,.05-4,.05-6,.11V88.68H81.83ZM90,68.57c5.69,0,9-2.89,9-8.77,0-5.33-2.23-7.6-8.87-7.6H86V68.57Z"/><path class="cls-2" d="M136.12,52.9H119.59V66.84h11.89v3.43H119.59v15H136.5v3.43H115.44V49.47h20.67Z"/><path class="cls-2" d="M164.69,58a5.72,5.72,0,0,0-5.8-5.83c-8.4,0-9,11.22-9,17.26,0,5.72.61,16.61,8.57,16.61,4.15,0,6.63-3,6.69-6.91h4.15c-.44,6.37-4.37,10.35-11,10.35-10.95,0-12.55-11.82-12.55-20.15,0-8.6,1.82-20.58,13-20.58a9.64,9.64,0,0,1,10,9.26Z"/><path class="cls-2" d="M183.76,66.62h13.82V49.47h4.15V88.68h-4.15V70.06H183.76V88.68h-4.15V49.47h4.15Z"/><path class="cls-2" d="M237.16,52.9H225.83V88.68h-4.15V52.9H210.57V49.47h26.59Z"/><path class="cls-2" d="M268.56,57.72v2l-21.17-3.87V53.37l21.17-3.8v1.95l-17.79,3.09v0Z"/><path class="cls-2" d="M268.45,73.47h-1.54l-17.59-7V74h-1.84V64.3h1.58l17.56,7.13V64.56h1.84Z"/><path class="cls-2" d="M252.19,85.85v0l16.37.85v1.92l-21.17-1.31v-2l9.08-2.16L247.38,81V79l21.17-1.43v1.93l-16.37.9v0l10.51,2.71Z"/></g></g></svg>