<svg id="Layer_1" data-name="Layer 1" xmlns="http://www.w3.org/2000/svg" viewBox="0 0 493.61 212.88"><defs><style>.cls-1,.cls-5,.cls-7{fill:none;stroke-miterlimit:10;}.cls-1{stroke:#aad1d0;stroke-linecap:round;stroke-width:6.47px;}.cls-2,.cls-6{fill:#4a4a4a;}.cls-3{fill:#d38247;}.cls-4{fill:#fff;}.cls-5,.cls-7{stroke:#4a4a4a;}.cls-5{stroke-width:1.62px;}.cls-6{font-size:19.41px;font-family:MyriadPro-Regular, Myriad Pro;}.cls-7{stroke-width:0.4px;}</style></defs><title>minimumafstand</title><path class="cls-1" d="M276.87,243s38,25.28,40.1,75.47a6.3,6.3,0,0,1-6.43,6.43H270.47a4.46,4.46,0,0,1-4.4-3.18c-.48-1.89.33-4.36,5.5-6.7a.48.48,0,0,0,0-.87,22.12,22.12,0,0,1-7.53-5.82,1.53,1.53,0,0,0-2.75.93v10.85a1.51,1.51,0,0,1-.27.88c-.61.87-2.16,2.82-3.85,2.9-2.18.11-7.1.11-7.1.11l-6.07-.17a3.73,3.73,0,0,1-3.72-3.23c-.15-1.68,1-3.73,5.89-5.34a1.52,1.52,0,0,0,1-1.44l.21-31.55a3.05,3.05,0,0,0-.53-1.75c-2.08-3-9.25-14.92-4.62-29.85" transform="translate(-209.38 -150.01)"/><path class="cls-2" d="M316.73,324.52h-.17A3.55,3.55,0,0,1,313,321V286.93a21.84,21.84,0,0,1,6.41-15.59A21.22,21.22,0,0,1,335,264.93h3.29a3.45,3.45,0,0,1,2.54,1,3.56,3.56,0,0,1,1,2.54v.12a3.36,3.36,0,0,1-1,2.48,3.45,3.45,0,0,1-2.54,1H335a14.24,14.24,0,0,0-10.45,4.33,14.54,14.54,0,0,0-4.33,10.45V321a3.55,3.55,0,0,1-3.52,3.52" transform="translate(-209.38 -150.01)"/><path class="cls-3" d="M283.44,186.09a3.49,3.49,0,0,0-2.48-1h-.17a3.45,3.45,0,0,0-3.52,3.52v17.2q-11.32-10-22.58-10a29.81,29.81,0,1,0,29.8,30V188.63A3.46,3.46,0,0,0,283.44,186.09Zm-12.82,55.6a21.5,21.5,0,0,1-15.94,6.64,22.61,22.61,0,0,1,0-45.21,21.5,21.5,0,0,1,15.94,6.64,22.51,22.51,0,0,1,0,31.93Z" transform="translate(-209.38 -150.01)"/><path class="cls-2" d="M357.24,184.74h16.32c12.4,0,20.69,7,20.69,32.1,0,24.7-7.67,32.1-21.67,32.1H357.24Zm6.69,58.58h8.2c9.27,0,15.43-2.59,15.43-26.48,0-24.61-7-26.48-15.61-26.48h-8Z" transform="translate(-209.38 -150.01)"/><path class="cls-2" d="M439.54,190.36H430.8v53h8.74v5.62H415.46v-5.62h8.65v-53h-8.65v-5.62h24.08Z" transform="translate(-209.38 -150.01)"/><path class="cls-2" d="M500,190.36H473.33v22.83H492.5v5.62H473.33v24.52h27.29v5.62h-34v-64.2H500Z" transform="translate(-209.38 -150.01)"/><path class="cls-2" d="M519.42,184.74H536.1c16.05,0,17.48,14.45,17.48,18.19,0,6.6-2.5,12.66-11.41,17.74l17.3,28.27h-8.11l-15.61-26.75c-3.21.09-6.42.09-9.63.18v26.57h-6.69Zm13,31.92c9.1,0,14.45-4.64,14.45-14.09,0-8.56-3.57-12.22-14.18-12.22h-6.6v26.31Z" transform="translate(-209.38 -150.01)"/><path class="cls-2" d="M607,190.36H580.32v22.83h19.17v5.62H580.32v24.52h27.29v5.62h-34v-64.2H607Z" transform="translate(-209.38 -150.01)"/><path class="cls-2" d="M625,184.74h7.76l19.53,48h.27v-48h6.69v64.83H652.9l-21-51.81-.18.18v51H625Z" transform="translate(-209.38 -150.01)"/><path class="cls-2" d="M357.24,264.75H374c16.09,0,17.53,14.27,17.53,18,0,6.52-2.5,12.51-11.44,17.53l17.34,27.92h-8.14L373.6,301.74c-3.22.09-6.44.09-9.65.18v26.24h-6.71Zm13.18,30.9c9.21,0,14.62-4.67,14.62-14.18,0-8.62-3.61-12.3-14.35-12.3H364v26.48Z" transform="translate(-209.38 -150.01)"/><path class="cls-2" d="M445,270.3H418.3v22.55h19.22v5.55H418.3v24.22h27.36v5.55H411.6V264.75H445Z" transform="translate(-209.38 -150.01)"/><path class="cls-2" d="M491.25,278.49a9.24,9.24,0,0,0-9.39-9.42c-13.59,0-14.49,18.14-14.49,27.92,0,9.25,1,26.86,13.86,26.86,6.71,0,10.73-4.93,10.82-11.18h6.71C498,323,491.7,329.39,481,329.39c-17.7,0-20.29-19.11-20.29-32.58,0-13.91,3-33.29,21.1-33.29,8.94,0,15.65,6.17,16.18,15Z" transform="translate(-209.38 -150.01)"/><path class="cls-2" d="M522.09,292.49h22.35V264.75h6.71v63.41h-6.71V298H522.09v30.12h-6.71V264.75h6.71Z" transform="translate(-209.38 -150.01)"/><path class="cls-2" d="M608.45,270.3H590.13v57.86h-6.71V270.3h-18v-5.55h43Z" transform="translate(-209.38 -150.01)"/><path class="cls-2" d="M659.23,278.09v3.19L625,275v-4l34.24-6.15v3.15l-28.78,5v.08Z" transform="translate(-209.38 -150.01)"/><path class="cls-2" d="M659.07,303.57h-2.5l-28.45-11.38v12.3h-3V288.74h2.55l28.4,11.53v-11.1h3Z" transform="translate(-209.38 -150.01)"/><path class="cls-2" d="M632.76,323.59v.08L659.23,325v3.11L625,326v-3.31l14.69-3.5L625,315.71v-3.19l34.24-2.31v3.11l-26.47,1.46v.08l17,4.38Z" transform="translate(-209.38 -150.01)"/><line class="cls-4" x1="415.47" y1="188" x2="449.99" y2="188"/><line class="cls-5" x1="421.27" y1="188" x2="444.19" y2="188"/><polygon class="cls-2" points="422.45 192.04 415.47 188 422.45 183.97 422.45 192.04"/><polygon class="cls-2" points="443.01 192.04 449.99 188 443.01 183.97 443.01 192.04"/><line class="cls-4" x1="449.85" y1="114.91" x2="484.38" y2="114.91"/><line class="cls-5" x1="455.65" y1="114.91" x2="478.57" y2="114.91"/><polygon class="cls-2" points="456.83 118.95 449.85 114.92 456.83 110.88 456.83 118.95"/><polygon class="cls-2" points="477.39 118.95 484.38 114.92 477.39 110.88 477.39 118.95"/><line class="cls-4" x1="249.8" y1="212.68" x2="249.8" y2="178.15"/><line class="cls-5" x1="249.8" y1="206.87" x2="249.8" y2="183.95"/><polygon class="cls-2" points="253.83 205.69 249.8 212.68 245.76 205.69 253.83 205.69"/><polygon class="cls-2" points="253.83 185.13 249.8 178.15 245.76 185.13 253.83 185.13"/><line class="cls-4" x1="249.8" y1="34.73" x2="249.8" y2="0.2"/><line class="cls-5" x1="249.8" y1="28.93" x2="249.8" y2="6"/><polygon class="cls-2" points="253.83 27.75 249.8 34.73 245.76 27.75 253.83 27.75"/><polygon class="cls-2" points="253.83 7.18 249.8 0.2 245.76 7.18 253.83 7.18"/><line class="cls-4" x1="0.2" y1="144.71" x2="34.73" y2="144.71"/><line class="cls-5" x1="6" y1="144.71" x2="28.93" y2="144.71"/><polygon class="cls-2" points="7.18 148.74 0.2 144.71 7.18 140.68 7.18 148.74"/><polygon class="cls-2" points="27.75 148.74 34.73 144.71 27.75 140.68 27.75 148.74"/><text class="cls-6" transform="translate(462.25 111.15)">X</text><text class="cls-6" transform="translate(255.23 23.25)">X</text><text class="cls-6" transform="translate(258.57 201.78)">X</text><text class="cls-6" transform="translate(9.82 167.97)">X</text><line class="cls-7" x1="0.2" y1="34.73" x2="484.22" y2="34.73"/><line class="cls-7" x1="0.2" y1="114.91" x2="483.87" y2="114.91"/><line class="cls-7" x1="0.2" y1="178.15" x2="484.63" y2="178.15"/><line class="cls-7" x1="449.85" y1="212.65" x2="449.85" y2="0.2"/><line class="cls-7" x1="415.58" y1="212.68" x2="415.58" y2="0.2"/><line class="cls-7" x1="15.51" y1="212.62" x2="15.51" y2="0.2"/><line class="cls-7" x1="0.2" y1="212.62" x2="0.2" y2="0.2"/><line class="cls-7" x1="0.2" y1="0.2" x2="484.56" y2="0.2"/><line class="cls-7" x1="0.2" y1="212.62" x2="484.38" y2="212.68"/><text class="cls-6" transform="translate(427.14 206.1)">X</text><line class="cls-7" x1="484.38" y1="212.68" x2="484.38" y2="0.2"/><line class="cls-4" x1="449.85" y1="200.31" x2="484.38" y2="200.31"/><line class="cls-5" x1="455.65" y1="200.31" x2="478.57" y2="200.31"/><polygon class="cls-2" points="456.83 204.34 449.85 200.31 456.83 196.28 456.83 204.34"/><polygon class="cls-2" points="477.39 204.34 484.38 200.31 477.39 196.28 477.39 204.34"/></svg>