<svg xmlns="http://www.w3.org/2000/svg" viewBox="0 0 631.2 411.1"><defs><style>.cls-1{fill:#4a4a4a;}.cls-2,.cls-6,.cls-8{fill:none;stroke-miterlimit:10;stroke-width:4px;}.cls-2{stroke:#fff;}.cls-3{fill:#fff;}.cls-4{fill:#d38247;}.cls-5{fill:#aad1d0;}.cls-6{stroke:#222221;}.cls-7{fill:#222221;}.cls-8{stroke:#aad1d0;stroke-linecap:round;}</style></defs><title>varianten</title><g id="Logo"><rect class="cls-1" x="331.67" y="127.21" width="299.52" height="131.34"/><path class="cls-2" d="M504.61,267.25s23.47,15.63,24.8,46.66a3.9,3.9,0,0,1-4,4H500.66a2.76,2.76,0,0,1-2.72-2c-.3-1.17.21-2.69,3.4-4.14a.29.29,0,0,0,0-.54,13.68,13.68,0,0,1-4.65-3.6,1,1,0,0,0-1.7.58v6.71a.93.93,0,0,1-.17.54c-.38.54-1.34,1.74-2.38,1.79-1.35.07-4.39.07-4.39.07l-3.75-.1a2.31,2.31,0,0,1-2.3-2c-.09-1,.6-2.31,3.64-3.3a.94.94,0,0,0,.64-.89l.13-19.51a1.89,1.89,0,0,0-.33-1.08A21.77,21.77,0,0,1,483.23,272" transform="translate(-125.81 -82.01)"/><path class="cls-3" d="M529.26,317.63h-.11a2.19,2.19,0,0,1-2.18-2.18V294.39a13.51,13.51,0,0,1,4-9.64,13.12,13.12,0,0,1,9.64-4h2a2.14,2.14,0,0,1,1.57.64,2.2,2.2,0,0,1,.61,1.57v.07a2.08,2.08,0,0,1-.61,1.54,2.14,2.14,0,0,1-1.57.64h-2a8.81,8.81,0,0,0-6.46,2.68,9,9,0,0,0-2.68,6.46v21.06a2.19,2.19,0,0,1-2.18,2.18" transform="translate(-125.81 -82.01)"/><path class="cls-3" d="M508.68,232a2.16,2.16,0,0,0-1.54-.61H507a2.13,2.13,0,0,0-2.18,2.18v10.64q-7-6.21-14-6.21a18.43,18.43,0,1,0,18.42,18.53v-23A2.14,2.14,0,0,0,508.68,232Zm-7.93,34.38a13.29,13.29,0,0,1-9.85,4.11,14,14,0,0,1,0-28,13.29,13.29,0,0,1,9.85,4.11,13.92,13.92,0,0,1,0,19.74Z" transform="translate(-125.81 -82.01)"/><path class="cls-3" d="M554.31,231.21H564.4c7.66,0,12.79,4.36,12.79,19.85,0,15.27-4.74,19.85-13.4,19.85h-9.48Zm4.14,36.22h5.07c5.73,0,9.54-1.6,9.54-16.38,0-15.22-4.36-16.37-9.65-16.37h-5Z" transform="translate(-125.81 -82.01)"/><path class="cls-3" d="M605.19,234.68h-5.4v32.75h5.4v3.47H590.31v-3.47h5.35V234.68h-5.35v-3.47h14.89Z" transform="translate(-125.81 -82.01)"/><path class="cls-3" d="M642.57,234.68H626.09v14.11h11.85v3.47H626.09v15.16H643v3.47H622v-39.7h20.62Z" transform="translate(-125.81 -82.01)"/><path class="cls-3" d="M654.59,231.21H664.9c9.92,0,10.81,8.93,10.81,11.25,0,4.08-1.54,7.83-7.06,11l10.69,17.48h-5l-9.65-16.54c-2,.06-4,.06-6,.11V270.9h-4.14Zm8,19.74c5.62,0,8.93-2.87,8.93-8.71,0-5.29-2.2-7.55-8.77-7.55h-4.08v16.26Z" transform="translate(-125.81 -82.01)"/><path class="cls-3" d="M708.73,234.68H692.24v14.11h11.85v3.47H692.24v15.16h16.87v3.47h-21v-39.7h20.62Z" transform="translate(-125.81 -82.01)"/><path class="cls-3" d="M719.86,231.21h4.8l12.07,29.66h.16V231.21H741v40.08h-3.92l-13-32-.11.11V270.9h-4.13Z" transform="translate(-125.81 -82.01)"/><path class="cls-3" d="M554.31,280.68h10.34c10,0,10.84,8.82,10.84,11.11,0,4-1.55,7.73-7.08,10.84l10.72,17.26h-5l-9.67-16.34c-2,.05-4,.05-6,.11v16.23h-4.15Zm8.15,19.1c5.69,0,9-2.89,9-8.77,0-5.33-2.23-7.6-8.87-7.6h-4.13v16.37Z" transform="translate(-125.81 -82.01)"/><path class="cls-3" d="M608.59,284.11H592.06V298h11.89v3.43H592.06v15H609v3.43H587.92V280.68h20.67Z" transform="translate(-125.81 -82.01)"/><path class="cls-3" d="M637.17,289.17a5.72,5.72,0,0,0-5.8-5.83c-8.4,0-9,11.22-9,17.26,0,5.72.61,16.61,8.57,16.61,4.15,0,6.63-3,6.69-6.91h4.15c-.44,6.37-4.37,10.35-11,10.35-10.95,0-12.55-11.82-12.55-20.15,0-8.6,1.82-20.58,13-20.58a9.64,9.64,0,0,1,10,9.26Z" transform="translate(-125.81 -82.01)"/><path class="cls-3" d="M656.24,297.83h13.82V280.68h4.15v39.21h-4.15V301.26H656.24v18.62h-4.15V280.68h4.15Z" transform="translate(-125.81 -82.01)"/><path class="cls-3" d="M709.63,284.11H698.3v35.78h-4.15V284.11H683v-3.43h26.59Z" transform="translate(-125.81 -82.01)"/><path class="cls-3" d="M741,288.93v2L719.86,287v-2.45l21.17-3.8v1.95l-17.79,3.09v0Z" transform="translate(-125.81 -82.01)"/><path class="cls-3" d="M740.93,304.68h-1.54l-17.59-7v7.6H720v-9.74h1.58l17.56,7.13v-6.87h1.84Z" transform="translate(-125.81 -82.01)"/><path class="cls-3" d="M724.66,317.06v0L741,318v1.92l-21.17-1.31v-2l9.08-2.16-9.08-2.19v-2L741,308.79v1.93l-16.37.9v0l10.51,2.71Z" transform="translate(-125.81 -82.01)"/><rect class="cls-4" x="331.67" y="279.77" width="299.52" height="131.34"/><path class="cls-2" d="M504.61,419.81s23.47,15.63,24.8,46.66a3.9,3.9,0,0,1-4,4H500.66a2.76,2.76,0,0,1-2.72-2c-.3-1.17.21-2.69,3.4-4.14a.29.29,0,0,0,0-.54,13.68,13.68,0,0,1-4.65-3.6,1,1,0,0,0-1.7.58v6.71a.93.93,0,0,1-.17.54c-.38.54-1.34,1.74-2.38,1.79-1.35.07-4.39.07-4.39.07l-3.75-.1a2.31,2.31,0,0,1-2.3-2c-.09-1,.6-2.31,3.64-3.3a.94.94,0,0,0,.64-.89l.13-19.51a1.89,1.89,0,0,0-.33-1.08,21.77,21.77,0,0,1-2.85-18.46" transform="translate(-125.81 -82.01)"/><path class="cls-3" d="M529.26,470.19h-.11A2.19,2.19,0,0,1,527,468V446.95a13.51,13.51,0,0,1,4-9.64,13.12,13.12,0,0,1,9.64-4h2a2.14,2.14,0,0,1,1.57.64,2.2,2.2,0,0,1,.61,1.57v.07a2.08,2.08,0,0,1-.61,1.54,2.14,2.14,0,0,1-1.57.64h-2a8.81,8.81,0,0,0-6.46,2.68,9,9,0,0,0-2.68,6.46V468a2.19,2.19,0,0,1-2.18,2.18" transform="translate(-125.81 -82.01)"/><path class="cls-3" d="M508.68,384.6a2.16,2.16,0,0,0-1.54-.61H507a2.13,2.13,0,0,0-2.18,2.18v10.64q-7-6.21-14-6.21a18.43,18.43,0,1,0,18.42,18.53v-23A2.14,2.14,0,0,0,508.68,384.6ZM500.75,419a13.29,13.29,0,0,1-9.85,4.11,14,14,0,0,1,0-28,13.29,13.29,0,0,1,9.85,4.11,13.92,13.92,0,0,1,0,19.74Z" transform="translate(-125.81 -82.01)"/><path class="cls-3" d="M554.31,383.77H564.4c7.66,0,12.79,4.36,12.79,19.85,0,15.27-4.74,19.85-13.4,19.85h-9.48ZM558.44,420h5.07c5.73,0,9.54-1.6,9.54-16.38,0-15.22-4.36-16.37-9.65-16.37h-5Z" transform="translate(-125.81 -82.01)"/><path class="cls-3" d="M605.19,387.24h-5.4V420h5.4v3.47H590.31V420h5.35V387.24h-5.35v-3.47h14.89Z" transform="translate(-125.81 -82.01)"/><path class="cls-3" d="M642.57,387.24H626.09v14.11h11.85v3.47H626.09V420H643v3.47H622v-39.7h20.62Z" transform="translate(-125.81 -82.01)"/><path class="cls-3" d="M654.59,383.77H664.9c9.92,0,10.81,8.93,10.81,11.25,0,4.08-1.54,7.83-7.06,11l10.69,17.48h-5l-9.65-16.54c-2,.06-4,.06-6,.11v16.43h-4.14Zm8,19.74c5.62,0,8.93-2.87,8.93-8.71,0-5.29-2.2-7.55-8.77-7.55h-4.08v16.26Z" transform="translate(-125.81 -82.01)"/><path class="cls-3" d="M708.73,387.24H692.24v14.11h11.85v3.47H692.24V420h16.87v3.47h-21v-39.7h20.62Z" transform="translate(-125.81 -82.01)"/><path class="cls-3" d="M719.86,383.77h4.8l12.07,29.66h.16V383.77H741v40.08h-3.92l-13-32-.11.11v31.54h-4.13Z" transform="translate(-125.81 -82.01)"/><path class="cls-3" d="M554.31,433.24h10.34c10,0,10.84,8.82,10.84,11.11,0,4-1.55,7.73-7.08,10.84l10.72,17.26h-5l-9.67-16.34c-2,.05-4,.05-6,.11v16.23h-4.15Zm8.15,19.1c5.69,0,9-2.89,9-8.77,0-5.33-2.23-7.6-8.87-7.6h-4.13v16.37Z" transform="translate(-125.81 -82.01)"/><path class="cls-3" d="M608.59,436.67H592.06v13.94h11.89V454H592.06v15H609v3.43H587.92V433.24h20.67Z" transform="translate(-125.81 -82.01)"/><path class="cls-3" d="M637.17,441.73a5.72,5.72,0,0,0-5.8-5.83c-8.4,0-9,11.22-9,17.26,0,5.72.61,16.61,8.57,16.61,4.15,0,6.63-3,6.69-6.91h4.15c-.44,6.37-4.37,10.35-11,10.35-10.95,0-12.55-11.82-12.55-20.15,0-8.6,1.82-20.58,13-20.58a9.64,9.64,0,0,1,10,9.26Z" transform="translate(-125.81 -82.01)"/><path class="cls-3" d="M656.24,450.39h13.82V433.24h4.15v39.21h-4.15V453.82H656.24v18.62h-4.15V433.24h4.15Z" transform="translate(-125.81 -82.01)"/><path class="cls-3" d="M709.63,436.67H698.3v35.78h-4.15V436.67H683v-3.43h26.59Z" transform="translate(-125.81 -82.01)"/><path class="cls-3" d="M741,441.49v2l-21.17-3.87v-2.45l21.17-3.8v1.95l-17.79,3.09v0Z" transform="translate(-125.81 -82.01)"/><path class="cls-3" d="M740.93,457.24h-1.54l-17.59-7v7.6H720v-9.74h1.58l17.56,7.13v-6.87h1.84Z" transform="translate(-125.81 -82.01)"/><path class="cls-3" d="M724.66,469.62v0l16.37.85v1.92l-21.17-1.31v-2l9.08-2.16-9.08-2.19v-2L741,461.35v1.93l-16.37.9v0l10.51,2.71Z" transform="translate(-125.81 -82.01)"/><rect class="cls-5" y="128.91" width="299.52" height="131.34"/><path class="cls-2" d="M172.94,269s23.47,15.63,24.8,46.66a3.9,3.9,0,0,1-4,4H169a2.76,2.76,0,0,1-2.72-2c-.3-1.17.21-2.69,3.4-4.14a.29.29,0,0,0,0-.54,13.68,13.68,0,0,1-4.65-3.6,1,1,0,0,0-1.7.58v6.71a.93.93,0,0,1-.17.54c-.38.54-1.34,1.74-2.38,1.79-1.35.07-4.39.07-4.39.07l-3.75-.1a2.31,2.31,0,0,1-2.3-2c-.09-1,.6-2.31,3.64-3.3a.94.94,0,0,0,.64-.89l.13-19.51a1.89,1.89,0,0,0-.33-1.08,21.77,21.77,0,0,1-2.85-18.46" transform="translate(-125.81 -82.01)"/><path class="cls-3" d="M197.59,319.34h-.11a2.19,2.19,0,0,1-2.18-2.18V296.09a13.51,13.51,0,0,1,4-9.64,13.12,13.12,0,0,1,9.64-4h2a2.14,2.14,0,0,1,1.57.64,2.2,2.2,0,0,1,.61,1.57v.07a2.08,2.08,0,0,1-.61,1.54,2.14,2.14,0,0,1-1.57.64h-2a8.81,8.81,0,0,0-6.46,2.68,9,9,0,0,0-2.68,6.46v21.06a2.19,2.19,0,0,1-2.18,2.18" transform="translate(-125.81 -82.01)"/><path class="cls-3" d="M177,233.75a2.16,2.16,0,0,0-1.54-.61h-.11a2.13,2.13,0,0,0-2.18,2.18V246q-7-6.21-14-6.21a18.43,18.43,0,1,0,18.42,18.53v-23A2.14,2.14,0,0,0,177,233.75Zm-7.93,34.38a13.29,13.29,0,0,1-9.85,4.11,14,14,0,0,1,0-28,13.29,13.29,0,0,1,9.85,4.11,13.92,13.92,0,0,1,0,19.74Z" transform="translate(-125.81 -82.01)"/><path class="cls-3" d="M222.64,232.91h10.09c7.66,0,12.79,4.36,12.79,19.85,0,15.27-4.74,19.85-13.4,19.85h-9.48Zm4.14,36.22h5.07c5.73,0,9.54-1.6,9.54-16.38,0-15.22-4.36-16.37-9.65-16.37h-5Z" transform="translate(-125.81 -82.01)"/><path class="cls-3" d="M273.52,236.38h-5.4v32.75h5.4v3.47H258.64v-3.47H264V236.38h-5.35v-3.47h14.89Z" transform="translate(-125.81 -82.01)"/><path class="cls-3" d="M310.9,236.38H294.41V250.5h11.85V254H294.41v15.16h16.87v3.47h-21v-39.7H310.9Z" transform="translate(-125.81 -82.01)"/><path class="cls-3" d="M322.92,232.91h10.31c9.92,0,10.81,8.93,10.81,11.25,0,4.08-1.54,7.83-7.06,11l10.69,17.48h-5L333,256.07c-2,.06-4,.06-6,.11v16.43h-4.14Zm8,19.74c5.62,0,8.93-2.87,8.93-8.71,0-5.29-2.2-7.55-8.77-7.55h-4.08v16.26Z" transform="translate(-125.81 -82.01)"/><path class="cls-3" d="M377.05,236.38H360.57V250.5h11.85V254H360.57v15.16h16.87v3.47h-21v-39.7h20.62Z" transform="translate(-125.81 -82.01)"/><path class="cls-3" d="M388.19,232.91H393l12.07,29.66h.16V232.91h4.14V273h-3.92l-13-32-.11.11v31.54h-4.13Z" transform="translate(-125.81 -82.01)"/><path class="cls-3" d="M222.64,282.38H233c10,0,10.84,8.82,10.84,11.11,0,4-1.55,7.73-7.08,10.84l10.72,17.26h-5l-9.67-16.34c-2,.05-4,.05-6,.11v16.23h-4.15Zm8.15,19.1c5.69,0,9-2.89,9-8.77,0-5.33-2.23-7.6-8.87-7.6h-4.13v16.37Z" transform="translate(-125.81 -82.01)"/><path class="cls-3" d="M276.92,285.81H260.39v13.94h11.89v3.43H260.39v15h16.92v3.43H256.25V282.38h20.67Z" transform="translate(-125.81 -82.01)"/><path class="cls-3" d="M305.5,290.88a5.72,5.72,0,0,0-5.8-5.83c-8.4,0-9,11.22-9,17.26,0,5.72.61,16.61,8.57,16.61,4.15,0,6.63-3,6.69-6.91h4.15c-.44,6.37-4.37,10.35-11,10.35-10.95,0-12.55-11.82-12.55-20.15,0-8.6,1.82-20.58,13-20.58a9.64,9.64,0,0,1,10,9.26Z" transform="translate(-125.81 -82.01)"/><path class="cls-3" d="M324.57,299.54h13.82V282.38h4.15v39.21h-4.15V303H324.57v18.62h-4.15V282.38h4.15Z" transform="translate(-125.81 -82.01)"/><path class="cls-3" d="M378,285.81H366.63v35.78h-4.15V285.81H351.37v-3.43H378Z" transform="translate(-125.81 -82.01)"/><path class="cls-3" d="M409.36,290.63v2l-21.17-3.87v-2.45l21.17-3.8v1.95l-17.79,3.09v0Z" transform="translate(-125.81 -82.01)"/><path class="cls-3" d="M409.26,306.38h-1.54l-17.59-7V307h-1.84v-9.74h1.58l17.56,7.13v-6.87h1.84Z" transform="translate(-125.81 -82.01)"/><path class="cls-3" d="M393,318.76v0l16.37.85v1.92l-21.17-1.31v-2l9.08-2.16-9.08-2.19v-2l21.17-1.43v1.93l-16.37.9v0l10.51,2.71Z" transform="translate(-125.81 -82.01)"/><path class="cls-6" d="M503.06,118.05s23.47,15.63,24.8,46.66a3.9,3.9,0,0,1-4,4H499.1a2.76,2.76,0,0,1-2.72-2c-.3-1.17.21-2.69,3.4-4.14a.29.29,0,0,0,0-.54,13.68,13.68,0,0,1-4.65-3.6,1,1,0,0,0-1.7.58v6.71a.93.93,0,0,1-.17.54c-.38.54-1.34,1.74-2.38,1.79-1.35.07-4.39.07-4.39.07l-3.75-.1a2.31,2.31,0,0,1-2.3-2c-.09-1,.6-2.31,3.64-3.3a.94.94,0,0,0,.64-.89l.13-19.51a1.89,1.89,0,0,0-.33-1.08,21.77,21.77,0,0,1-2.85-18.46" transform="translate(-125.81 -82.01)"/><path class="cls-7" d="M527.7,168.43h-.11a2.19,2.19,0,0,1-2.18-2.18V145.19a13.51,13.51,0,0,1,4-9.64,13.12,13.12,0,0,1,9.64-4h2a2.14,2.14,0,0,1,1.57.64,2.2,2.2,0,0,1,.61,1.57v.07a2.08,2.08,0,0,1-.61,1.54,2.14,2.14,0,0,1-1.57.64h-2a8.81,8.81,0,0,0-6.46,2.68,9,9,0,0,0-2.68,6.46v21.06a2.19,2.19,0,0,1-2.18,2.18" transform="translate(-125.81 -82.01)"/><path class="cls-7" d="M507.12,82.84a2.16,2.16,0,0,0-1.54-.61h-.11a2.13,2.13,0,0,0-2.18,2.18V95q-7-6.21-14-6.21a18.43,18.43,0,0,0-13,31.45,18.42,18.42,0,0,0,31.45-12.92v-23A2.14,2.14,0,0,0,507.12,82.84Zm-7.93,34.38a13.29,13.29,0,0,1-9.85,4.11,14,14,0,0,1,0-28,13.29,13.29,0,0,1,9.85,4.11,13.92,13.92,0,0,1,0,19.74Z" transform="translate(-125.81 -82.01)"/><path class="cls-7" d="M552.75,82h10.09c7.66,0,12.79,4.36,12.79,19.85,0,15.27-4.74,19.85-13.4,19.85h-9.48Zm4.14,36.22H562c5.73,0,9.54-1.6,9.54-16.38,0-15.22-4.36-16.37-9.65-16.37h-5Z" transform="translate(-125.81 -82.01)"/><path class="cls-7" d="M603.64,85.48h-5.4v32.75h5.4v3.47H588.75v-3.47h5.35V85.48h-5.35V82h14.89Z" transform="translate(-125.81 -82.01)"/><path class="cls-7" d="M641,85.48H624.53V99.59h11.85v3.47H624.53v15.16H641.4v3.47h-21V82H641Z" transform="translate(-125.81 -82.01)"/><path class="cls-7" d="M653,82h10.31c9.92,0,10.81,8.93,10.81,11.25,0,4.08-1.54,7.83-7.06,11l10.69,17.48h-5l-9.65-16.54c-2,.06-4,.06-6,.11V121.7H653Zm8,19.74c5.62,0,8.93-2.87,8.93-8.71,0-5.29-2.2-7.55-8.77-7.55h-4.08v16.26Z" transform="translate(-125.81 -82.01)"/><path class="cls-7" d="M707.17,85.48H690.68V99.59h11.85v3.47H690.68v15.16h16.87v3.47h-21V82h20.62Z" transform="translate(-125.81 -82.01)"/><path class="cls-7" d="M718.3,82h4.8l12.07,29.66h.16V82h4.14v40.08h-3.92l-13-32-.11.11V121.7H718.3Z" transform="translate(-125.81 -82.01)"/><path class="cls-7" d="M552.75,131.48h10.34c10,0,10.84,8.82,10.84,11.11,0,4-1.55,7.73-7.08,10.84l10.72,17.26h-5l-9.67-16.34c-2,.05-4,.05-6,.11v16.23h-4.15Zm8.15,19.1c5.69,0,9-2.89,9-8.77,0-5.33-2.23-7.6-8.87-7.6h-4.13v16.37Z" transform="translate(-125.81 -82.01)"/><path class="cls-7" d="M607,134.91H590.5v13.94h11.89v3.43H590.5v15h16.92v3.43H586.36V131.48H607Z" transform="translate(-125.81 -82.01)"/><path class="cls-7" d="M635.61,140a5.72,5.72,0,0,0-5.8-5.83c-8.4,0-9,11.22-9,17.26,0,5.72.61,16.61,8.57,16.61,4.15,0,6.63-3,6.69-6.91h4.15c-.44,6.37-4.37,10.35-11,10.35-10.95,0-12.55-11.82-12.55-20.15,0-8.6,1.82-20.58,13-20.58a9.64,9.64,0,0,1,10,9.26Z" transform="translate(-125.81 -82.01)"/><path class="cls-7" d="M654.68,148.63H668.5V131.48h4.15v39.21H668.5V152.06H654.68v18.62h-4.15V131.48h4.15Z" transform="translate(-125.81 -82.01)"/><path class="cls-7" d="M708.08,134.91H696.75v35.78H692.6V134.91H681.49v-3.43h26.59Z" transform="translate(-125.81 -82.01)"/><path class="cls-7" d="M739.47,139.73v2l-21.17-3.87v-2.45l21.17-3.8v1.95l-17.79,3.09v0Z" transform="translate(-125.81 -82.01)"/><path class="cls-7" d="M739.37,155.48h-1.54l-17.59-7V156H718.4v-9.74H720l17.56,7.13v-6.87h1.84Z" transform="translate(-125.81 -82.01)"/><path class="cls-7" d="M723.11,167.86v0l16.37.85v1.92l-21.17-1.31v-2l9.08-2.16L718.3,163v-2l21.17-1.43v1.93l-16.37.9v0l10.51,2.71Z" transform="translate(-125.81 -82.01)"/><rect class="cls-7" x="1.73" y="279.77" width="299.52" height="131.34"/><path class="cls-2" d="M174.67,419.81s23.47,15.63,24.8,46.66a3.9,3.9,0,0,1-4,4H170.72a2.76,2.76,0,0,1-2.72-2c-.3-1.17.21-2.69,3.4-4.14a.29.29,0,0,0,0-.54,13.68,13.68,0,0,1-4.65-3.6,1,1,0,0,0-1.7.58v6.71a.93.93,0,0,1-.17.54c-.38.54-1.34,1.74-2.38,1.79-1.35.07-4.39.07-4.39.07l-3.75-.1a2.31,2.31,0,0,1-2.3-2c-.09-1,.6-2.31,3.64-3.3a.94.94,0,0,0,.64-.89l.13-19.51a1.89,1.89,0,0,0-.33-1.08,21.77,21.77,0,0,1-2.85-18.46" transform="translate(-125.81 -82.01)"/><path class="cls-3" d="M199.32,470.19h-.11A2.19,2.19,0,0,1,197,468V446.95a13.51,13.51,0,0,1,4-9.64,13.12,13.12,0,0,1,9.64-4h2a2.14,2.14,0,0,1,1.57.64,2.2,2.2,0,0,1,.61,1.57v.07a2.08,2.08,0,0,1-.61,1.54,2.14,2.14,0,0,1-1.57.64h-2a8.81,8.81,0,0,0-6.46,2.68,9,9,0,0,0-2.68,6.46V468a2.19,2.19,0,0,1-2.18,2.18" transform="translate(-125.81 -82.01)"/><path class="cls-3" d="M178.74,384.6a2.16,2.16,0,0,0-1.54-.61h-.11a2.13,2.13,0,0,0-2.18,2.18v10.64q-7-6.21-14-6.21a18.43,18.43,0,1,0,18.42,18.53v-23A2.14,2.14,0,0,0,178.74,384.6ZM170.81,419a13.29,13.29,0,0,1-9.85,4.11,14,14,0,0,1,0-28,13.29,13.29,0,0,1,9.85,4.11,13.92,13.92,0,0,1,0,19.74Z" transform="translate(-125.81 -82.01)"/><path class="cls-3" d="M224.37,383.77h10.09c7.66,0,12.79,4.36,12.79,19.85,0,15.27-4.74,19.85-13.4,19.85h-9.48ZM228.5,420h5.07c5.73,0,9.54-1.6,9.54-16.38,0-15.22-4.36-16.37-9.65-16.37h-5Z" transform="translate(-125.81 -82.01)"/><path class="cls-3" d="M275.25,387.24h-5.4V420h5.4v3.47H260.37V420h5.35V387.24h-5.35v-3.47h14.89Z" transform="translate(-125.81 -82.01)"/><path class="cls-3" d="M312.63,387.24H296.15v14.11H308v3.47H296.15V420H313v3.47H292v-39.7h20.62Z" transform="translate(-125.81 -82.01)"/><path class="cls-3" d="M324.65,383.77H335c9.92,0,10.81,8.93,10.81,11.25,0,4.08-1.54,7.83-7.06,11l10.69,17.48h-5l-9.65-16.54c-2,.06-4,.06-6,.11v16.43h-4.14Zm8,19.74c5.62,0,8.93-2.87,8.93-8.71,0-5.29-2.2-7.55-8.77-7.55h-4.08v16.26Z" transform="translate(-125.81 -82.01)"/><path class="cls-3" d="M378.78,387.24H362.3v14.11h11.85v3.47H362.3V420h16.87v3.47h-21v-39.7h20.62Z" transform="translate(-125.81 -82.01)"/><path class="cls-3" d="M389.92,383.77h4.8l12.07,29.66H407V383.77h4.14v40.08h-3.92l-13-32-.11.11v31.54h-4.13Z" transform="translate(-125.81 -82.01)"/><path class="cls-3" d="M224.37,433.24h10.34c10,0,10.84,8.82,10.84,11.11,0,4-1.55,7.73-7.08,10.84l10.72,17.26h-5l-9.67-16.34c-2,.05-4,.05-6,.11v16.23h-4.15Zm8.15,19.1c5.69,0,9-2.89,9-8.77,0-5.33-2.23-7.6-8.87-7.6h-4.13v16.37Z" transform="translate(-125.81 -82.01)"/><path class="cls-3" d="M278.65,436.67H262.12v13.94H274V454H262.12v15H279v3.43H258V433.24h20.67Z" transform="translate(-125.81 -82.01)"/><path class="cls-3" d="M307.23,441.73a5.72,5.72,0,0,0-5.8-5.83c-8.4,0-9,11.22-9,17.26,0,5.72.61,16.61,8.57,16.61,4.15,0,6.63-3,6.69-6.91h4.15c-.44,6.37-4.37,10.35-11,10.35-10.95,0-12.55-11.82-12.55-20.15,0-8.6,1.82-20.58,13-20.58a9.64,9.64,0,0,1,10,9.26Z" transform="translate(-125.81 -82.01)"/><path class="cls-3" d="M326.3,450.39h13.82V433.24h4.15v39.21h-4.15V453.82H326.3v18.62h-4.15V433.24h4.15Z" transform="translate(-125.81 -82.01)"/><path class="cls-3" d="M379.69,436.67H368.36v35.78h-4.15V436.67H353.1v-3.43h26.59Z" transform="translate(-125.81 -82.01)"/><path class="cls-3" d="M411.09,441.49v2l-21.17-3.87v-2.45l21.17-3.8v1.95l-17.79,3.09v0Z" transform="translate(-125.81 -82.01)"/><path class="cls-3" d="M411,457.24h-1.54l-17.59-7v7.6H390v-9.74h1.58l17.56,7.13v-6.87H411Z" transform="translate(-125.81 -82.01)"/><path class="cls-3" d="M394.72,469.62v0l16.37.85v1.92l-21.17-1.31v-2l9.08-2.16-9.08-2.19v-2l21.17-1.43v1.93l-16.37.9v0l10.51,2.71Z" transform="translate(-125.81 -82.01)"/></g><g id="Layer_1" data-name="Layer 1"><path class="cls-8" d="M171.38,120.14s23.47,15.63,24.8,46.66a3.9,3.9,0,0,1-4,4H167.43a2.76,2.76,0,0,1-2.72-2c-.3-1.17.21-2.69,3.4-4.14a.29.29,0,0,0,0-.54,13.68,13.68,0,0,1-4.65-3.6,1,1,0,0,0-1.7.58v6.71a.93.93,0,0,1-.17.54c-.38.54-1.34,1.74-2.38,1.79-1.35.07-4.39.07-4.39.07l-3.75-.1a2.31,2.31,0,0,1-2.3-2c-.09-1,.6-2.31,3.64-3.3a.94.94,0,0,0,.64-.89l.13-19.51a1.89,1.89,0,0,0-.33-1.08A21.77,21.77,0,0,1,150,124.87" transform="translate(-125.81 -82.01)"/><path class="cls-1" d="M196,170.52h-.11a2.19,2.19,0,0,1-2.18-2.18V147.28a13.51,13.51,0,0,1,4-9.64,13.12,13.12,0,0,1,9.64-4h2a2.14,2.14,0,0,1,1.57.64,2.2,2.2,0,0,1,.61,1.57V136a2.08,2.08,0,0,1-.61,1.54,2.14,2.14,0,0,1-1.57.64h-2a8.81,8.81,0,0,0-6.46,2.68,9,9,0,0,0-2.68,6.46v21.06a2.19,2.19,0,0,1-2.18,2.18" transform="translate(-125.81 -82.01)"/><path class="cls-4" d="M175.45,84.93a2.16,2.16,0,0,0-1.54-.61h-.11a2.13,2.13,0,0,0-2.18,2.18V97.14q-7-6.21-14-6.21a18.43,18.43,0,0,0-13,31.45,18.42,18.42,0,0,0,31.45-12.92v-23A2.14,2.14,0,0,0,175.45,84.93Zm-7.93,34.38a13.29,13.29,0,0,1-9.85,4.11,14,14,0,0,1,0-28,13.29,13.29,0,0,1,9.85,4.11,13.92,13.92,0,0,1,0,19.74Z" transform="translate(-125.81 -82.01)"/><path class="cls-1" d="M221.08,84.1h10.09c7.66,0,12.79,4.36,12.79,19.85,0,15.27-4.74,19.85-13.4,19.85h-9.48Zm4.14,36.22h5.07c5.73,0,9.54-1.6,9.54-16.38,0-15.22-4.36-16.37-9.65-16.37h-5Z" transform="translate(-125.81 -82.01)"/><path class="cls-1" d="M272,87.57h-5.4v32.75H272v3.47H257.08v-3.47h5.35V87.57h-5.35V84.1H272Z" transform="translate(-125.81 -82.01)"/><path class="cls-1" d="M309.34,87.57H292.86v14.11h11.85v3.47H292.86v15.16h16.87v3.47h-21V84.1h20.62Z" transform="translate(-125.81 -82.01)"/><path class="cls-1" d="M321.36,84.1h10.31c9.92,0,10.81,8.93,10.81,11.25,0,4.08-1.54,7.83-7.06,11l10.69,17.48h-5l-9.65-16.54c-2,.06-4,.06-6,.11v16.43h-4.14Zm8,19.74c5.62,0,8.93-2.87,8.93-8.71,0-5.29-2.2-7.55-8.77-7.55h-4.08v16.26Z" transform="translate(-125.81 -82.01)"/><path class="cls-1" d="M375.5,87.57H359v14.11h11.85v3.47H359v15.16h16.87v3.47h-21V84.1H375.5Z" transform="translate(-125.81 -82.01)"/><path class="cls-1" d="M386.63,84.1h4.8l12.07,29.66h.16V84.1h4.14v40.08h-3.92l-13-32-.11.11v31.54h-4.13Z" transform="translate(-125.81 -82.01)"/><path class="cls-1" d="M221.08,133.57h10.34c10,0,10.84,8.82,10.84,11.11,0,4-1.55,7.73-7.08,10.84l10.72,17.26h-5l-9.67-16.34c-2,.05-4,.05-6,.11v16.23h-4.15Zm8.15,19.1c5.69,0,9-2.89,9-8.77,0-5.33-2.23-7.6-8.87-7.6h-4.13v16.37Z" transform="translate(-125.81 -82.01)"/><path class="cls-1" d="M275.36,137H258.83v13.94h11.89v3.43H258.83v15h16.92v3.43H254.69V133.57h20.67Z" transform="translate(-125.81 -82.01)"/><path class="cls-1" d="M303.94,142.06a5.72,5.72,0,0,0-5.8-5.83c-8.4,0-9,11.22-9,17.26,0,5.72.61,16.61,8.57,16.61,4.15,0,6.63-3,6.69-6.91h4.15c-.44,6.37-4.37,10.35-11,10.35-10.95,0-12.55-11.82-12.55-20.15,0-8.6,1.82-20.58,13-20.58a9.64,9.64,0,0,1,10,9.26Z" transform="translate(-125.81 -82.01)"/><path class="cls-1" d="M323,150.72h13.82V133.57H341v39.21h-4.15V154.15H323v18.62h-4.15V133.57H323Z" transform="translate(-125.81 -82.01)"/><path class="cls-1" d="M376.41,137H365.07v35.78h-4.15V137H349.82v-3.43h26.59Z" transform="translate(-125.81 -82.01)"/><path class="cls-1" d="M407.8,141.82v2l-21.17-3.87v-2.45l21.17-3.8v1.95L390,138.7v0Z" transform="translate(-125.81 -82.01)"/><path class="cls-1" d="M407.7,157.57h-1.54l-17.59-7v7.6h-1.84V148.4h1.58l17.56,7.13v-6.87h1.84Z" transform="translate(-125.81 -82.01)"/><path class="cls-1" d="M391.43,169.95v0l16.37.85v1.92l-21.17-1.31v-2l9.08-2.16-9.08-2.19v-2l21.17-1.43v1.93l-16.37.9v0l10.51,2.71Z" transform="translate(-125.81 -82.01)"/></g></svg>