<svg id="Layer_1" data-name="Layer 1" xmlns="http://www.w3.org/2000/svg" viewBox="0 0 581.57 437.78"><defs><style>.cls-1{font-size:39px;fill:#4a4a4a;font-family:WorkSans-Regular, Work Sans;}.cls-2{letter-spacing:-0.03em;}.cls-3{letter-spacing:-0.02em;}.cls-4{letter-spacing:-0.01em;}.cls-5{letter-spacing:-0.02em;}.cls-6{letter-spacing:-0.02em;}.cls-7{font-size:25px;}.cls-8{letter-spacing:-0.01em;}.cls-9{letter-spacing:-0.01em;}.cls-10{letter-spacing:-0.01em;}.cls-11{letter-spacing:-0.01em;}.cls-12{letter-spacing:-0.03em;}.cls-13{letter-spacing:-0.01em;}.cls-14{letter-spacing:-0.02em;}.cls-15{letter-spacing:0em;}.cls-16{letter-spacing:-0.02em;}.cls-17{letter-spacing:-0.03em;}.cls-18{letter-spacing:-0.04em;}.cls-19{letter-spacing:-0.01em;}.cls-20{letter-spacing:-0.02em;}.cls-21{letter-spacing:-0.02em;}.cls-22{letter-spacing:-0.02em;}.cls-23{letter-spacing:-0.01em;}.cls-24{letter-spacing:-0.02em;}.cls-25{letter-spacing:-0.01em;}.cls-26{letter-spacing:-0.02em;}.cls-27{letter-spacing:-0.02em;}.cls-28{letter-spacing:-0.02em;}.cls-29{letter-spacing:-0.02em;}.cls-30{letter-spacing:-0.03em;}.cls-31{letter-spacing:-0.03em;}.cls-32{letter-spacing:-0.02em;}.cls-33{letter-spacing:-0.02em;}.cls-34{fill:#222221;}</style></defs><title>worksans</title><text class="cls-1" transform="translate(0 32.37)"><tspan class="cls-2">W</tspan><tspan x="36.15" y="0">or</tspan><tspan class="cls-3" x="75.78" y="0">k</tspan><tspan x="97.03" y="0"> </tspan><tspan class="cls-4" x="110.33" y="0">S</tspan><tspan x="134.94" y="0">ans - </tspan><tspan class="cls-5" x="248.19" y="0">R</tspan><tspan x="273.46" y="0">egula</tspan><tspan class="cls-6" x="375.68" y="0">r</tspan><tspan class="cls-7"><tspan x="0" y="87.6">THE QUIC</tspan><tspan class="cls-8" x="119.17" y="87.6">K</tspan><tspan x="135.25" y="87.6" xml:space="preserve"> B</tspan><tspan class="cls-9" x="160.1" y="87.6">R</tspan><tspan class="cls-10" x="176.57" y="87.6">O</tspan><tspan x="195.07" y="87.6">WN </tspan><tspan class="cls-11" x="245.97" y="87.6">F</tspan><tspan class="cls-12" x="260.92" y="87.6">O</tspan><tspan class="cls-13" x="279" y="87.6">X</tspan><tspan class="cls-14" x="293.77" y="87.6"> </tspan><tspan class="cls-15" x="301.7" y="87.6">JUMS </tspan><tspan class="cls-16" x="379.75" y="87.6">O</tspan><tspan x="398.04" y="87.6">VER</tspan><tspan class="cls-17" x="446.82" y="87.6"> </tspan><tspan x="454.67" y="87.6">THE LAZ</tspan><tspan class="cls-18" x="559.79" y="87.6">Y</tspan><tspan x="573.04" y="87.6"> </tspan><tspan x="0" y="117.6">DOG.</tspan><tspan class="cls-19" x="0" y="177.6">L</tspan><tspan x="14.57" y="177.6">o</tspan><tspan class="cls-20" x="29.77" y="177.6">r</tspan><tspan x="39.57" y="177.6">em ipsum dolo</tspan><tspan class="cls-21" x="223.65" y="177.6">r</tspan><tspan x="233.27" y="177.6" xml:space="preserve"> sit am</tspan><tspan class="cls-19" x="318.59" y="177.6">e</tspan><tspan x="332.74" y="177.6">t, consect</tspan><tspan class="cls-19" x="455.44" y="177.6">e</tspan><tspan x="469.59" y="177.6">tue</tspan><tspan class="cls-22" x="510.06" y="177.6">r</tspan><tspan x="519.69" y="177.6"> </tspan><tspan x="0" y="207.6">adipiscing elit, sed diam nonum</tspan><tspan class="cls-23" x="391.39" y="207.6">m</tspan><tspan class="cls-12" x="414.87" y="207.6">y</tspan><tspan x="427.62" y="207.6" xml:space="preserve"> nibh </tspan><tspan x="0" y="237.6">euismod</tspan><tspan class="cls-24" x="104.6" y="237.6"> </tspan><tspan x="112.62" y="237.6">tincidu</tspan><tspan class="cls-25" x="197.2" y="237.6">n</tspan><tspan x="212.5" y="237.6">t ut lao</tspan><tspan class="cls-20" x="302.97" y="237.6">r</tspan><tspan x="312.77" y="237.6">e</tspan><tspan class="cls-19" x="327.29" y="237.6">e</tspan><tspan x="341.44" y="237.6">t dolo</tspan><tspan class="cls-26" x="414.24" y="237.6">r</tspan><tspan x="424.04" y="237.6">e magn</tspan><tspan class="cls-22" x="514.26" y="237.6">a</tspan><tspan x="527.84" y="237.6"> </tspan><tspan x="0" y="267.6">aliquam e</tspan><tspan class="cls-23" x="120.72" y="267.6">r</tspan><tspan class="cls-27" x="130.57" y="267.6">a</tspan><tspan x="144.22" y="267.6">t</tspan><tspan class="cls-12" x="154.7" y="267.6"> </tspan><tspan x="162.6" y="267.6">volutp</tspan><tspan class="cls-24" x="240.15" y="267.6">a</tspan><tspan x="253.8" y="267.6">t. Ut</tspan><tspan class="cls-28" x="307.92" y="267.6"> </tspan><tspan x="315.9" y="267.6">wisi enim ad minim </tspan><tspan x="0" y="297.6">veniam, quis nostrud </tspan><tspan class="cls-29" x="266.67" y="297.6">e</tspan><tspan class="cls-24" x="280.72" y="297.6">x</tspan><tspan x="293.54" y="297.6">e</tspan><tspan class="cls-26" x="308.07" y="297.6">r</tspan><tspan x="317.87" y="297.6">ci</tspan><tspan class="cls-27" x="338.62" y="297.6"> </tspan><tspan x="346.64" y="297.6">t</tspan><tspan class="cls-27" x="357.12" y="297.6">a</tspan><tspan x="370.77" y="297.6">tion </tspan><tspan x="0" y="327.6">ullamcorpe</tspan><tspan class="cls-21" x="138.52" y="327.6">r</tspan><tspan x="148.15" y="327.6" xml:space="preserve"> suscipit lobo</tspan><tspan class="cls-30" x="314.44" y="327.6">r</tspan><tspan x="323.89" y="327.6">tis nis</tspan><tspan class="cls-31" x="398.02" y="327.6">l</tspan><tspan x="404.79" y="327.6" xml:space="preserve"> ut aliquip </tspan><tspan class="cls-32" x="538.41" y="327.6">e</tspan><tspan class="cls-33" x="552.46" y="327.6">x</tspan><tspan x="565.29" y="327.6"> </tspan><tspan x="0" y="357.6">e</tspan><tspan class="cls-21" x="14.52" y="357.6">a</tspan><tspan x="28.1" y="357.6" xml:space="preserve"> commodo consequ</tspan><tspan class="cls-27" x="271.97" y="357.6">a</tspan><tspan x="285.62" y="357.6">t.</tspan><tspan class="cls-34" x="302.75" y="357.6"> </tspan></tspan></text></svg>